<svg width="124" height="56" viewBox="0 0 124 56" fill="none" xmlns="http://www.w3.org/2000/svg">
<g filter="url(#filter0_d_0_601)">
<mask id="path-1-inside-1_0_601" fill="white">
<path d="M11.5 15C11.5 10.5817 15.0817 7 19.5 7H104.5C108.918 7 112.5 10.5817 112.5 15V33C112.5 37.4183 108.918 41 104.5 41H19.5C15.0817 41 11.5 37.4183 11.5 33V15Z"/>
</mask>
<path d="M11.5 15C11.5 10.5817 15.0817 7 19.5 7H104.5C108.918 7 112.5 10.5817 112.5 15V33C112.5 37.4183 108.918 41 104.5 41H19.5C15.0817 41 11.5 37.4183 11.5 33V15Z" fill="url(#paint0_linear_0_601)"/>
<path d="M11.5 15C11.5 9.75329 15.7533 5.5 21 5.5H103C108.247 5.5 112.5 9.75329 112.5 15C112.5 11.4101 108.918 8.5 104.5 8.5H19.5C15.0817 8.5 11.5 11.4101 11.5 15ZM112.5 41H11.5H112.5ZM11.5 41V7V41ZM112.5 7V41V7Z" fill="#5A9FFA" mask="url(#path-1-inside-1_0_601)"/>
</g>

</svg>
