<svg width="965" height="409" viewBox="0 0 965 409" fill="none" xmlns="http://www.w3.org/2000/svg">
<line x1="1" y1="33.8527" x2="887" y2="33.8527" stroke="white" stroke-opacity="0.15"/>
<path d="M907.413 37.4647L905.813 37.4007L905.957 34.1207L904.309 34.0727L900.405 34.2327L899.749 32.9367L902.405 29.5127L902.581 29.3367L906.181 26.8727L907.429 27.5767L907.253 30.5687L907.461 32.5847L908.885 32.6327L908.821 34.2327L907.557 34.1847L907.413 37.4647ZM903.589 30.6007L902.069 32.5527L904.261 32.4727H904.325L905.845 32.5207L905.653 30.6647V30.5367L905.733 29.1127L903.589 30.6007ZM913.436 37.4007L911.836 37.3207L911.996 33.4967L911.692 30.9527V30.8247L911.804 28.5527L910.444 28.7607L910.204 27.1767L912.524 26.8087L913.452 27.6407L913.292 30.8247L913.596 33.3687L913.612 33.4967L913.436 37.4007ZM918.765 37.4007L917.164 37.3207L917.325 33.4967L917.021 30.9527V30.8247L917.133 28.5527L915.773 28.7607L915.533 27.1767L917.853 26.8087L918.781 27.6407L918.621 30.8247L918.924 33.3687L918.941 33.4967L918.765 37.4007ZM925.069 37.4007H924.589L922.109 36.6007L921.693 36.2807L920.749 34.8247L922.077 33.9607L922.877 35.1607L924.829 35.8007L926.413 35.2887L927.085 34.0087L926.621 32.5847L925.293 32.0087L921.597 31.5287L921.021 30.3127L922.861 27.2727L923.549 26.8727H927.453V28.4727H923.997L923.021 30.0887L925.613 30.4247L925.821 30.4887L927.597 31.2567L928.029 31.7367L928.701 33.8487L928.653 34.4567L927.677 36.3287L927.213 36.7127L925.069 37.4007ZM933.345 37.3047L931.585 36.1527L931.297 35.7847L929.921 32.4727V31.8327L931.393 28.5047L931.664 28.1687L933.329 27.0167L934.193 27.0007L935.969 28.0887L936.305 28.4727L937.633 31.8647V32.4567L936.321 35.7047L936.017 36.0727L934.241 37.3047H933.345ZM932.673 34.9527L933.777 35.6727L934.929 34.8887L936.033 32.1527L934.913 29.3207L933.809 28.6327L932.753 29.3527L931.521 32.1687L932.673 34.9527ZM942.266 37.3047L940.506 36.1527L940.218 35.7847L938.842 32.4727V31.8327L940.314 28.5047L940.586 28.1687L942.25 27.0167L943.114 27.0007L944.89 28.0887L945.226 28.4727L946.554 31.8647V32.4567L945.242 35.7047L944.938 36.0727L943.162 37.3047H942.266ZM941.594 34.9527L942.698 35.6727L943.85 34.8887L944.954 32.1527L943.834 29.3207L942.73 28.6327L941.674 29.3527L940.442 32.1687L941.594 34.9527ZM951.188 37.3047L949.428 36.1527L949.14 35.7847L947.764 32.4727V31.8327L949.236 28.5047L949.508 28.1687L951.172 27.0167L952.036 27.0007L953.812 28.0887L954.148 28.4727L955.476 31.8647V32.4567L954.164 35.7047L953.86 36.0727L952.084 37.3047H951.188ZM950.516 34.9527L951.62 35.6727L952.772 34.8887L953.876 32.1527L952.756 29.3207L951.652 28.6327L950.596 29.3527L949.364 32.1687L950.516 34.9527ZM960.11 37.3047L958.35 36.1527L958.062 35.7847L956.686 32.4727V31.8327L958.158 28.5047L958.43 28.1687L960.094 27.0167L960.958 27.0007L962.734 28.0887L963.07 28.4727L964.398 31.8647V32.4567L963.086 35.7047L962.782 36.0727L961.006 37.3047H960.11ZM959.438 34.9527L960.542 35.6727L961.694 34.8887L962.798 32.1527L961.678 29.3207L960.574 28.6327L959.518 29.3527L958.286 32.1687L959.438 34.9527Z" fill="#7786CB"/>
<line x1="1" y1="101.853" x2="887" y2="101.853" stroke="white" stroke-opacity="0.15"/>
<path d="M907.413 105.465L905.813 105.401L905.957 102.121L904.309 102.073L900.405 102.233L899.749 100.937L902.405 97.5127L902.581 97.3367L906.181 94.8727L907.429 95.5767L907.253 98.5687L907.461 100.585L908.885 100.633L908.821 102.233L907.557 102.185L907.413 105.465ZM903.589 98.6007L902.069 100.553L904.261 100.473H904.325L905.845 100.521L905.653 98.6647V98.5367L905.733 97.1127L903.589 98.6007ZM913.436 105.401L911.836 105.321L911.996 101.497L911.692 98.9527V98.8247L911.804 96.5527L910.444 96.7607L910.204 95.1767L912.524 94.8087L913.452 95.6407L913.292 98.8247L913.596 101.369L913.612 101.497L913.436 105.401ZM918.765 105.401L917.164 105.321L917.325 101.497L917.021 98.9527V98.8247L917.133 96.5527L915.773 96.7607L915.533 95.1767L917.853 94.8087L918.781 95.6407L918.621 98.8247L918.924 101.369L918.941 101.497L918.765 105.401ZM925.069 105.401H924.589L922.109 104.601L921.693 104.281L920.749 102.825L922.077 101.961L922.877 103.161L924.829 103.801L926.413 103.289L927.085 102.009L926.621 100.585L925.293 100.009L921.597 99.5287L921.021 98.3127L922.861 95.2727L923.549 94.8727H927.453V96.4727H923.997L923.021 98.0887L925.613 98.4247L925.821 98.4887L927.597 99.2567L928.029 99.7367L928.701 101.849L928.653 102.457L927.677 104.329L927.213 104.713L925.069 105.401ZM933.345 105.305L931.585 104.153L931.297 103.785L929.921 100.473V99.8327L931.393 96.5047L931.664 96.1687L933.329 95.0167L934.193 95.0007L935.969 96.0887L936.305 96.4727L937.633 99.8647V100.457L936.321 103.705L936.017 104.073L934.241 105.305H933.345ZM932.673 102.953L933.777 103.673L934.929 102.889L936.033 100.153L934.913 97.3207L933.809 96.6327L932.753 97.3527L931.521 100.169L932.673 102.953ZM942.266 105.305L940.506 104.153L940.218 103.785L938.842 100.473V99.8327L940.314 96.5047L940.586 96.1687L942.25 95.0167L943.114 95.0007L944.89 96.0887L945.226 96.4727L946.554 99.8647V100.457L945.242 103.705L944.938 104.073L943.162 105.305H942.266ZM941.594 102.953L942.698 103.673L943.85 102.889L944.954 100.153L943.834 97.3207L942.73 96.6327L941.674 97.3527L940.442 100.169L941.594 102.953ZM951.188 105.305L949.428 104.153L949.14 103.785L947.764 100.473V99.8327L949.236 96.5047L949.508 96.1687L951.172 95.0167L952.036 95.0007L953.812 96.0887L954.148 96.4727L955.476 99.8647V100.457L954.164 103.705L953.86 104.073L952.084 105.305H951.188ZM950.516 102.953L951.62 103.673L952.772 102.889L953.876 100.153L952.756 97.3207L951.652 96.6327L950.596 97.3527L949.364 100.169L950.516 102.953ZM960.11 105.305L958.35 104.153L958.062 103.785L956.686 100.473V99.8327L958.158 96.5047L958.43 96.1687L960.094 95.0167L960.958 95.0007L962.734 96.0887L963.07 96.4727L964.398 99.8647V100.457L963.086 103.705L962.782 104.073L961.006 105.305H960.11ZM959.438 102.953L960.542 103.673L961.694 102.889L962.798 100.153L961.678 97.3207L960.574 96.6327L959.518 97.3527L958.286 100.169L959.438 102.953Z" fill="#7786CB"/>
<line x1="1" y1="169.853" x2="887" y2="169.853" stroke="white" stroke-opacity="0.15"/>
<path d="M907.413 173.465L905.813 173.401L905.957 170.121L904.309 170.073L900.405 170.233L899.749 168.937L902.405 165.513L902.581 165.337L906.181 162.873L907.429 163.577L907.253 166.569L907.461 168.585L908.885 168.633L908.821 170.233L907.557 170.185L907.413 173.465ZM903.589 166.601L902.069 168.553L904.261 168.473H904.325L905.845 168.521L905.653 166.665V166.537L905.733 165.113L903.589 166.601ZM913.436 173.401L911.836 173.321L911.996 169.497L911.692 166.953V166.825L911.804 164.553L910.444 164.761L910.204 163.177L912.524 162.809L913.452 163.641L913.292 166.825L913.596 169.369L913.612 169.497L913.436 173.401ZM918.765 173.401L917.164 173.321L917.325 169.497L917.021 166.953V166.825L917.133 164.553L915.773 164.761L915.533 163.177L917.853 162.809L918.781 163.641L918.621 166.825L918.924 169.369L918.941 169.497L918.765 173.401ZM925.069 173.401H924.589L922.109 172.601L921.693 172.281L920.749 170.825L922.077 169.961L922.877 171.161L924.829 171.801L926.413 171.289L927.085 170.009L926.621 168.585L925.293 168.009L921.597 167.529L921.021 166.313L922.861 163.273L923.549 162.873H927.453V164.473H923.997L923.021 166.089L925.613 166.425L925.821 166.489L927.597 167.257L928.029 167.737L928.701 169.849L928.653 170.457L927.677 172.329L927.213 172.713L925.069 173.401ZM933.345 173.305L931.585 172.153L931.297 171.785L929.921 168.473V167.833L931.393 164.505L931.664 164.169L933.329 163.017L934.193 163.001L935.969 164.089L936.305 164.473L937.633 167.865V168.457L936.321 171.705L936.017 172.073L934.241 173.305H933.345ZM932.673 170.953L933.777 171.673L934.929 170.889L936.033 168.153L934.913 165.321L933.809 164.633L932.753 165.353L931.521 168.169L932.673 170.953ZM942.266 173.305L940.506 172.153L940.218 171.785L938.842 168.473V167.833L940.314 164.505L940.586 164.169L942.25 163.017L943.114 163.001L944.89 164.089L945.226 164.473L946.554 167.865V168.457L945.242 171.705L944.938 172.073L943.162 173.305H942.266ZM941.594 170.953L942.698 171.673L943.85 170.889L944.954 168.153L943.834 165.321L942.73 164.633L941.674 165.353L940.442 168.169L941.594 170.953ZM951.188 173.305L949.428 172.153L949.14 171.785L947.764 168.473V167.833L949.236 164.505L949.508 164.169L951.172 163.017L952.036 163.001L953.812 164.089L954.148 164.473L955.476 167.865V168.457L954.164 171.705L953.86 172.073L952.084 173.305H951.188ZM950.516 170.953L951.62 171.673L952.772 170.889L953.876 168.153L952.756 165.321L951.652 164.633L950.596 165.353L949.364 168.169L950.516 170.953ZM960.11 173.305L958.35 172.153L958.062 171.785L956.686 168.473V167.833L958.158 164.505L958.43 164.169L960.094 163.017L960.958 163.001L962.734 164.089L963.07 164.473L964.398 167.865V168.457L963.086 171.705L962.782 172.073L961.006 173.305H960.11ZM959.438 170.953L960.542 171.673L961.694 170.889L962.798 168.153L961.678 165.321L960.574 164.633L959.518 165.353L958.286 168.169L959.438 170.953Z" fill="#7786CB"/>
<line x1="1" y1="237.853" x2="887" y2="237.853" stroke="white" stroke-opacity="0.15"/>
<path d="M907.413 241.465L905.813 241.401L905.957 238.121L904.309 238.073L900.405 238.233L899.749 236.937L902.405 233.513L902.581 233.337L906.181 230.873L907.429 231.577L907.253 234.569L907.461 236.585L908.885 236.633L908.821 238.233L907.557 238.185L907.413 241.465ZM903.589 234.601L902.069 236.553L904.261 236.473H904.325L905.845 236.521L905.653 234.665V234.537L905.733 233.113L903.589 234.601ZM913.436 241.401L911.836 241.321L911.996 237.497L911.692 234.953V234.825L911.804 232.553L910.444 232.761L910.204 231.177L912.524 230.809L913.452 231.641L913.292 234.825L913.596 237.369L913.612 237.497L913.436 241.401ZM918.765 241.401L917.164 241.321L917.325 237.497L917.021 234.953V234.825L917.133 232.553L915.773 232.761L915.533 231.177L917.853 230.809L918.781 231.641L918.621 234.825L918.924 237.369L918.941 237.497L918.765 241.401ZM925.069 241.401H924.589L922.109 240.601L921.693 240.281L920.749 238.825L922.077 237.961L922.877 239.161L924.829 239.801L926.413 239.289L927.085 238.009L926.621 236.585L925.293 236.009L921.597 235.529L921.021 234.313L922.861 231.273L923.549 230.873H927.453V232.473H923.997L923.021 234.089L925.613 234.425L925.821 234.489L927.597 235.257L928.029 235.737L928.701 237.849L928.653 238.457L927.677 240.329L927.213 240.713L925.069 241.401ZM933.345 241.305L931.585 240.153L931.297 239.785L929.921 236.473V235.833L931.393 232.505L931.664 232.169L933.329 231.017L934.193 231.001L935.969 232.089L936.305 232.473L937.633 235.865V236.457L936.321 239.705L936.017 240.073L934.241 241.305H933.345ZM932.673 238.953L933.777 239.673L934.929 238.889L936.033 236.153L934.913 233.321L933.809 232.633L932.753 233.353L931.521 236.169L932.673 238.953ZM942.266 241.305L940.506 240.153L940.218 239.785L938.842 236.473V235.833L940.314 232.505L940.586 232.169L942.25 231.017L943.114 231.001L944.89 232.089L945.226 232.473L946.554 235.865V236.457L945.242 239.705L944.938 240.073L943.162 241.305H942.266ZM941.594 238.953L942.698 239.673L943.85 238.889L944.954 236.153L943.834 233.321L942.73 232.633L941.674 233.353L940.442 236.169L941.594 238.953ZM951.188 241.305L949.428 240.153L949.14 239.785L947.764 236.473V235.833L949.236 232.505L949.508 232.169L951.172 231.017L952.036 231.001L953.812 232.089L954.148 232.473L955.476 235.865V236.457L954.164 239.705L953.86 240.073L952.084 241.305H951.188ZM950.516 238.953L951.62 239.673L952.772 238.889L953.876 236.153L952.756 233.321L951.652 232.633L950.596 233.353L949.364 236.169L950.516 238.953ZM960.11 241.305L958.35 240.153L958.062 239.785L956.686 236.473V235.833L958.158 232.505L958.43 232.169L960.094 231.017L960.958 231.001L962.734 232.089L963.07 232.473L964.398 235.865V236.457L963.086 239.705L962.782 240.073L961.006 241.305H960.11ZM959.438 238.953L960.542 239.673L961.694 238.889L962.798 236.153L961.678 233.321L960.574 232.633L959.518 233.353L958.286 236.169L959.438 238.953Z" fill="#7786CB"/>
<line x1="1" y1="305.853" x2="887" y2="305.853" stroke="white" stroke-opacity="0.15"/>
<path d="M907.413 309.465L905.813 309.401L905.957 306.121L904.309 306.073L900.405 306.233L899.749 304.937L902.405 301.513L902.581 301.337L906.181 298.873L907.429 299.577L907.253 302.569L907.461 304.585L908.885 304.633L908.821 306.233L907.557 306.185L907.413 309.465ZM903.589 302.601L902.069 304.553L904.261 304.473H904.325L905.845 304.521L905.653 302.665V302.537L905.733 301.113L903.589 302.601ZM913.436 309.401L911.836 309.321L911.996 305.497L911.692 302.953V302.825L911.804 300.553L910.444 300.761L910.204 299.177L912.524 298.809L913.452 299.641L913.292 302.825L913.596 305.369L913.612 305.497L913.436 309.401ZM918.765 309.401L917.164 309.321L917.325 305.497L917.021 302.953V302.825L917.133 300.553L915.773 300.761L915.533 299.177L917.853 298.809L918.781 299.641L918.621 302.825L918.924 305.369L918.941 305.497L918.765 309.401ZM925.069 309.401H924.589L922.109 308.601L921.693 308.281L920.749 306.825L922.077 305.961L922.877 307.161L924.829 307.801L926.413 307.289L927.085 306.009L926.621 304.585L925.293 304.009L921.597 303.529L921.021 302.313L922.861 299.273L923.549 298.873H927.453V300.473H923.997L923.021 302.089L925.613 302.425L925.821 302.489L927.597 303.257L928.029 303.737L928.701 305.849L928.653 306.457L927.677 308.329L927.213 308.713L925.069 309.401ZM933.345 309.305L931.585 308.153L931.297 307.785L929.921 304.473V303.833L931.393 300.505L931.664 300.169L933.329 299.017L934.193 299.001L935.969 300.089L936.305 300.473L937.633 303.865V304.457L936.321 307.705L936.017 308.073L934.241 309.305H933.345ZM932.673 306.953L933.777 307.673L934.929 306.889L936.033 304.153L934.913 301.321L933.809 300.633L932.753 301.353L931.521 304.169L932.673 306.953ZM942.266 309.305L940.506 308.153L940.218 307.785L938.842 304.473V303.833L940.314 300.505L940.586 300.169L942.25 299.017L943.114 299.001L944.89 300.089L945.226 300.473L946.554 303.865V304.457L945.242 307.705L944.938 308.073L943.162 309.305H942.266ZM941.594 306.953L942.698 307.673L943.85 306.889L944.954 304.153L943.834 301.321L942.73 300.633L941.674 301.353L940.442 304.169L941.594 306.953ZM951.188 309.305L949.428 308.153L949.14 307.785L947.764 304.473V303.833L949.236 300.505L949.508 300.169L951.172 299.017L952.036 299.001L953.812 300.089L954.148 300.473L955.476 303.865V304.457L954.164 307.705L953.86 308.073L952.084 309.305H951.188ZM950.516 306.953L951.62 307.673L952.772 306.889L953.876 304.153L952.756 301.321L951.652 300.633L950.596 301.353L949.364 304.169L950.516 306.953ZM960.11 309.305L958.35 308.153L958.062 307.785L956.686 304.473V303.833L958.158 300.505L958.43 300.169L960.094 299.017L960.958 299.001L962.734 300.089L963.07 300.473L964.398 303.865V304.457L963.086 307.705L962.782 308.073L961.006 309.305H960.11ZM959.438 306.953L960.542 307.673L961.694 306.889L962.798 304.153L961.678 301.321L960.574 300.633L959.518 301.353L958.286 304.169L959.438 306.953Z" fill="#7786CB"/>
<line x1="1" y1="373.853" x2="887" y2="373.853" stroke="white" stroke-opacity="0.15"/>
<path d="M907.413 377.465L905.813 377.401L905.957 374.121L904.309 374.073L900.405 374.233L899.749 372.937L902.405 369.513L902.581 369.337L906.181 366.873L907.429 367.577L907.253 370.569L907.461 372.585L908.885 372.633L908.821 374.233L907.557 374.185L907.413 377.465ZM903.589 370.601L902.069 372.553L904.261 372.473H904.325L905.845 372.521L905.653 370.665V370.537L905.733 369.113L903.589 370.601ZM913.436 377.401L911.836 377.321L911.996 373.497L911.692 370.953V370.825L911.804 368.553L910.444 368.761L910.204 367.177L912.524 366.809L913.452 367.641L913.292 370.825L913.596 373.369L913.612 373.497L913.436 377.401ZM918.765 377.401L917.164 377.321L917.325 373.497L917.021 370.953V370.825L917.133 368.553L915.773 368.761L915.533 367.177L917.853 366.809L918.781 367.641L918.621 370.825L918.924 373.369L918.941 373.497L918.765 377.401ZM925.069 377.401H924.589L922.109 376.601L921.693 376.281L920.749 374.825L922.077 373.961L922.877 375.161L924.829 375.801L926.413 375.289L927.085 374.009L926.621 372.585L925.293 372.009L921.597 371.529L921.021 370.313L922.861 367.273L923.549 366.873H927.453V368.473H923.997L923.021 370.089L925.613 370.425L925.821 370.489L927.597 371.257L928.029 371.737L928.701 373.849L928.653 374.457L927.677 376.329L927.213 376.713L925.069 377.401ZM933.345 377.305L931.585 376.153L931.297 375.785L929.921 372.473V371.833L931.393 368.505L931.664 368.169L933.329 367.017L934.193 367.001L935.969 368.089L936.305 368.473L937.633 371.865V372.457L936.321 375.705L936.017 376.073L934.241 377.305H933.345ZM932.673 374.953L933.777 375.673L934.929 374.889L936.033 372.153L934.913 369.321L933.809 368.633L932.753 369.353L931.521 372.169L932.673 374.953ZM942.266 377.305L940.506 376.153L940.218 375.785L938.842 372.473V371.833L940.314 368.505L940.586 368.169L942.25 367.017L943.114 367.001L944.89 368.089L945.226 368.473L946.554 371.865V372.457L945.242 375.705L944.938 376.073L943.162 377.305H942.266ZM941.594 374.953L942.698 375.673L943.85 374.889L944.954 372.153L943.834 369.321L942.73 368.633L941.674 369.353L940.442 372.169L941.594 374.953ZM951.188 377.305L949.428 376.153L949.14 375.785L947.764 372.473V371.833L949.236 368.505L949.508 368.169L951.172 367.017L952.036 367.001L953.812 368.089L954.148 368.473L955.476 371.865V372.457L954.164 375.705L953.86 376.073L952.084 377.305H951.188ZM950.516 374.953L951.62 375.673L952.772 374.889L953.876 372.153L952.756 369.321L951.652 368.633L950.596 369.353L949.364 372.169L950.516 374.953ZM960.11 377.305L958.35 376.153L958.062 375.785L956.686 372.473V371.833L958.158 368.505L958.43 368.169L960.094 367.017L960.958 367.001L962.734 368.089L963.07 368.473L964.398 371.865V372.457L963.086 375.705L962.782 376.073L961.006 377.305H960.11ZM959.438 374.953L960.542 375.673L961.694 374.889L962.798 372.153L961.678 369.321L960.574 368.633L959.518 369.353L958.286 372.169L959.438 374.953Z" fill="#7786CB"/>
<path d="M2.664 402.291L2.072 400.931L4.36 398.643L4.504 398.531L6.584 397.203L7.896 395.283L7 393.971L5.704 393.395L4.072 393.923L2.792 395.363L1.608 394.307L3.016 392.707L3.368 392.467L5.496 391.779L6.072 391.811L7.848 392.611L8.184 392.883L9.528 394.819V395.731L7.816 398.243L7.576 398.467L5.432 399.843L4.648 400.627L6.776 400.547H6.856L9.72 400.707L9.624 402.291L6.792 402.147L2.664 402.291ZM14.3285 402.323L14.0565 402.307L11.5605 401.699L11.9445 400.147L14.2805 400.707L16.0245 400.515L16.1205 400.387L15.2725 399.891L13.0645 400.051L12.4405 399.811L11.3525 398.691V397.555L12.4405 396.499L12.8565 396.291L14.4725 395.971L14.8405 395.987L17.0165 396.579L16.5845 398.131L14.6005 397.571L13.3845 397.811L13.0485 398.147L13.3205 398.435L15.4005 398.275L15.8485 398.387L17.7205 399.459L17.9605 400.643L17.0645 401.763L16.5365 402.067L14.3285 402.323Z" fill="#7786CB"/>
<path d="M134.756 402.403L133.156 402.339L133.3 399.059L131.652 399.011L127.748 399.171L127.092 397.875L129.748 394.451L129.924 394.275L133.524 391.811L134.772 392.515L134.596 395.507L134.804 397.523L136.228 397.571L136.164 399.171L134.9 399.123L134.756 402.403ZM130.932 395.539L129.412 397.491L131.604 397.411H131.668L133.188 397.459L132.996 395.603V395.475L133.076 394.051L130.932 395.539ZM140.844 402.323L140.572 402.307L138.076 401.699L138.46 400.147L140.796 400.707L142.54 400.515L142.636 400.387L141.788 399.891L139.58 400.051L138.956 399.811L137.868 398.691V397.555L138.956 396.499L139.372 396.291L140.988 395.971L141.356 395.987L143.532 396.579L143.1 398.131L141.116 397.571L139.9 397.811L139.564 398.147L139.836 398.435L141.916 398.275L142.364 398.387L144.236 399.459L144.476 400.643L143.58 401.763L143.052 402.067L140.844 402.323Z" fill="#7786CB"/>
<path d="M257.427 402.339L255.635 401.779L255.155 401.379L253.827 398.707V397.987L254.819 395.987L254.979 395.779L257.443 393.315L257.587 393.203L260.371 391.571L261.187 392.947L258.499 394.531L257.731 395.283H257.875L259.363 395.715L259.779 395.987L261.395 398.035L261.507 398.867L260.563 400.883L260.179 401.267L258.003 402.307L257.427 402.339ZM256.435 400.355L257.603 400.723L259.235 399.939L259.843 398.643L258.675 397.187L257.635 396.883L255.955 397.299L255.427 398.339L256.435 400.355ZM266.11 402.323L265.838 402.307L263.342 401.699L263.726 400.147L266.062 400.707L267.806 400.515L267.902 400.387L267.054 399.891L264.846 400.051L264.222 399.811L263.134 398.691V397.555L264.222 396.499L264.638 396.291L266.254 395.971L266.622 395.987L268.798 396.579L268.366 398.131L266.382 397.571L265.166 397.811L264.83 398.147L265.102 398.435L267.182 398.275L267.63 398.387L269.502 399.459L269.742 400.643L268.846 401.763L268.318 402.067L266.11 402.323Z" fill="#7786CB"/>
<path d="M382.874 402.339L382.362 402.323L380.266 401.523L379.866 401.187L378.842 399.475V398.627L379.866 397.059L380.346 396.707L380.41 396.691L379.434 395.331L379.418 394.403L380.33 393.123L380.57 392.899L382.234 391.923L382.906 391.859L384.618 392.451L385.018 392.771L386.106 394.403L386.058 395.347L384.89 396.803L384.97 396.851L386.378 398.611L386.49 399.427L385.69 401.203L385.194 401.635L382.874 402.339ZM381.098 400.131L382.666 400.739L384.378 400.211L384.826 399.219L383.914 398.083L382.522 397.843L381.034 398.195L380.458 399.075L381.098 400.131ZM381.978 396.115L382.474 396.211L383.514 395.955L384.458 394.803L383.834 393.875L382.73 393.491L381.53 394.195L381.066 394.867L381.978 396.115ZM391.094 402.323L390.822 402.307L388.326 401.699L388.71 400.147L391.046 400.707L392.79 400.515L392.886 400.387L392.038 399.891L389.83 400.051L389.206 399.811L388.118 398.691V397.555L389.206 396.499L389.622 396.291L391.238 395.971L391.606 395.987L393.782 396.579L393.35 398.131L391.366 397.571L390.15 397.811L389.814 398.147L390.086 398.435L392.166 398.275L392.614 398.387L394.486 399.459L394.726 400.643L393.83 401.763L393.302 402.067L391.094 402.323Z" fill="#7786CB"/>
<path d="M506.983 402.339L505.383 402.259L505.543 398.435L505.239 395.891V395.763L505.351 393.491L503.991 393.699L503.751 392.115L506.071 391.747L506.999 392.579L506.839 395.763L507.143 398.307L507.159 398.435L506.983 402.339ZM512.391 402.243L510.631 401.091L510.343 400.723L508.967 397.411V396.771L510.439 393.443L510.711 393.107L512.375 391.955L513.239 391.939L515.015 393.027L515.351 393.411L516.679 396.803V397.395L515.367 400.643L515.063 401.011L513.287 402.243H512.391ZM511.719 399.891L512.823 400.611L513.975 399.827L515.079 397.091L513.959 394.259L512.855 393.571L511.799 394.291L510.567 397.107L511.719 399.891ZM521.297 402.323L521.025 402.307L518.529 401.699L518.913 400.147L521.249 400.707L522.993 400.515L523.089 400.387L522.241 399.891L520.033 400.051L519.409 399.811L518.321 398.691V397.555L519.409 396.499L519.825 396.291L521.441 395.971L521.809 395.987L523.985 396.579L523.553 398.131L521.569 397.571L520.353 397.811L520.017 398.147L520.289 398.435L522.369 398.275L522.817 398.387L524.689 399.459L524.929 400.643L524.033 401.763L523.505 402.067L521.297 402.323Z" fill="#7786CB"/>
<path d="M637.288 402.339L635.688 402.259L635.848 398.435L635.544 395.891V395.763L635.656 393.491L634.296 393.699L634.056 392.115L636.376 391.747L637.304 392.579L637.144 395.763L637.448 398.307L637.464 398.435L637.288 402.339ZM640.328 402.291L639.736 400.931L642.024 398.643L642.168 398.531L644.248 397.203L645.56 395.283L644.664 393.971L643.368 393.395L641.736 393.923L640.456 395.363L639.272 394.307L640.68 392.707L641.032 392.467L643.16 391.779L643.736 391.811L645.512 392.611L645.848 392.883L647.192 394.819V395.731L645.48 398.243L645.24 398.467L643.096 399.843L642.312 400.627L644.44 400.547H644.52L647.384 400.707L647.288 402.291L644.456 402.147L640.328 402.291ZM651.993 402.323L651.721 402.307L649.225 401.699L649.609 400.147L651.945 400.707L653.689 400.515L653.785 400.387L652.937 399.891L650.729 400.051L650.105 399.811L649.017 398.691V397.555L650.105 396.499L650.521 396.291L652.137 395.971L652.505 395.987L654.681 396.579L654.249 398.131L652.265 397.571L651.049 397.811L650.713 398.147L650.985 398.435L653.065 398.275L653.513 398.387L655.385 399.459L655.625 400.643L654.729 401.763L654.201 402.067L651.993 402.323Z" fill="#7786CB"/>
<path d="M768.272 402.339L766.672 402.259L766.832 398.435L766.528 395.891V395.763L766.64 393.491L765.28 393.699L765.04 392.115L767.36 391.747L768.288 392.579L768.128 395.763L768.432 398.307L768.448 398.435L768.272 402.339ZM777.92 402.403L776.32 402.339L776.464 399.059L774.816 399.011L770.912 399.171L770.256 397.875L772.912 394.451L773.088 394.275L776.688 391.811L777.936 392.515L777.76 395.507L777.968 397.523L779.392 397.571L779.328 399.171L778.064 399.123L777.92 402.403ZM774.096 395.539L772.576 397.491L774.768 397.411H774.832L776.352 397.459L776.16 395.603V395.475L776.24 394.051L774.096 395.539ZM784.008 402.323L783.736 402.307L781.24 401.699L781.624 400.147L783.96 400.707L785.704 400.515L785.8 400.387L784.952 399.891L782.744 400.051L782.12 399.811L781.032 398.691V397.555L782.12 396.499L782.536 396.291L784.152 395.971L784.52 395.987L786.696 396.579L786.264 398.131L784.28 397.571L783.064 397.811L782.728 398.147L783 398.435L785.08 398.275L785.528 398.387L787.4 399.459L787.64 400.643L786.744 401.763L786.216 402.067L784.008 402.323Z" fill="#7786CB"/>
<path d="M900.007 402.339L898.407 402.259L898.567 398.435L898.263 395.891V395.763L898.375 393.491L897.015 393.699L896.775 392.115L899.095 391.747L900.023 392.579L899.863 395.763L900.167 398.307L900.183 398.435L900.007 402.339ZM905.591 402.339L903.799 401.779L903.319 401.379L901.991 398.707V397.987L902.983 395.987L903.143 395.779L905.607 393.315L905.751 393.203L908.535 391.571L909.351 392.947L906.663 394.531L905.895 395.283H906.039L907.527 395.715L907.943 395.987L909.559 398.035L909.671 398.867L908.727 400.883L908.343 401.267L906.167 402.307L905.591 402.339ZM904.599 400.355L905.767 400.723L907.399 399.939L908.007 398.643L906.839 397.187L905.799 396.883L904.119 397.299L903.591 398.339L904.599 400.355ZM914.274 402.323L914.002 402.307L911.506 401.699L911.89 400.147L914.226 400.707L915.97 400.515L916.066 400.387L915.218 399.891L913.01 400.051L912.386 399.811L911.298 398.691V397.555L912.386 396.499L912.802 396.291L914.418 395.971L914.786 395.987L916.962 396.579L916.53 398.131L914.546 397.571L913.33 397.811L912.994 398.147L913.266 398.435L915.346 398.275L915.794 398.387L917.666 399.459L917.906 400.643L917.01 401.763L916.482 402.067L914.274 402.323Z" fill="#7786CB"/>
<line x1="1.00091" y1="171.403" x2="824.001" y2="172.903" stroke="white" stroke-dasharray="7 7"/>
<rect x="832" y="139.153" width="133" height="67" rx="16" fill="url(#paint0_linear_357_17)"/>
<path d="M865.445 161.153L863.053 161.036L859.777 161.153L859.114 160.451L859.231 158.813L858.984 154.12V154.029L859.114 152.521L860.401 152.638L860.284 154.094L860.531 158.787V158.878L860.466 159.827L863.04 159.736H863.105L865.51 159.866L865.445 161.153ZM868.589 161.192L867.302 161.127L867.419 158.475L867.172 155.537V155.446L867.302 152.547L868.589 152.612L868.472 155.472L868.719 158.41V158.501L868.589 161.192ZM873.003 161.179L871.573 157.877L871.547 157.799L870.78 155.225L869.831 153.132L871.001 152.586L871.976 154.731L872.015 154.809L872.782 157.396L873.536 159.138L874.589 156.161L874.654 156.031L875.291 154.991L876.071 152.625L877.306 153.028L876.5 155.472L876.435 155.615L875.798 156.655L874.212 161.127L873.003 161.179ZM881.826 159.736H881.891L884.946 159.866L884.881 161.153L881.865 161.036L879.226 161.153L878.55 160.542L878.42 157.955V157.851L878.667 155.472L878.55 153.262L879.226 152.586L882.06 152.703L884.881 152.586L884.946 153.873L882.099 154.003H882.034L879.889 153.912L879.967 155.446V155.55L879.902 156.161L881.358 156.018H881.488L883.672 156.226L883.555 157.526L881.423 157.318L879.759 157.487L879.72 157.942L879.811 159.827L881.826 159.736ZM897.115 161.166L893.098 161.153L892.461 160.425L892.708 158.241L892.461 155.043V154.991V153.223L893.111 152.573L895.867 152.586L895.984 152.599L897.219 152.833L897.622 153.093L898.662 154.575L898.584 155.42L897.635 156.356L898.74 156.837L899.052 157.123L899.832 158.592L899.845 159.177L899.234 160.503L898.766 160.867L897.232 161.153L897.115 161.166ZM893.839 159.853L897.063 159.866L898.194 159.658L898.532 158.93L897.999 157.942L896.114 157.11L893.93 157.201L894.008 158.202V158.332L893.839 159.853ZM893.761 154.965L893.826 155.901L896.335 155.797L897.284 154.874L896.712 154.055L895.802 153.886L893.761 153.873V154.965ZM902.981 161.192L901.694 161.127L901.811 158.475L901.564 155.537V155.446L901.694 152.547L902.981 152.612L902.864 155.472L903.111 158.41V158.501L902.981 161.192ZM910.58 152.586L910.671 153.873L908.916 154.003H908.799L908.058 153.938L907.967 155.381L908.214 158.228L908.227 158.306L908.097 161.192L906.797 161.127L906.927 158.293L906.667 155.446V155.342L906.771 153.795L906.277 153.756L904.301 153.873L904.223 152.586L906.251 152.456H906.355L908.877 152.703L910.58 152.586ZM916.308 161.153H914.111L913.747 161.049L912.2 159.97L911.953 159.593L911.303 157.032V156.681L912.148 153.964L912.408 153.626L913.734 152.69L914.111 152.573H915.853L916.23 152.703L917.569 153.678L916.802 154.731L915.645 153.873H914.306L913.331 154.562L912.603 156.889L913.149 159.047L914.319 159.853H916.074L917.01 159.047L917.855 160.035L916.737 160.997L916.308 161.153ZM922.939 161.231L922.328 161.218L919.793 159.788L919.494 159.385L918.844 157.019L918.857 156.629L919.806 154.029L920.118 153.678L922.354 152.508H922.952L925.578 153.86L925.877 154.185L926.917 156.59V157.071L926.033 159.476L925.721 159.827L922.939 161.231ZM920.664 158.787L922.666 159.918L924.902 158.787L925.617 156.876L924.772 154.913L922.653 153.821L920.937 154.718L920.144 156.876L920.664 158.787ZM929.806 161.192L928.519 161.127L928.636 158.475L928.389 155.537V155.446L928.519 152.547L929.806 152.612L929.689 155.472L929.936 158.41V158.501L929.806 161.192ZM932.023 161.192L931.893 158.41V158.319L932.14 155.342L932.062 152.963L933.258 152.573L935.338 155.68L935.377 155.745L936.638 158.137L937.197 158.943L937.21 158.748L936.963 156.564L936.95 156.46L937.08 152.56L938.38 152.599L938.263 156.46L938.51 158.657V158.787L938.341 160.841L937.158 161.153L935.546 158.852L935.507 158.787L934.233 156.369L933.44 155.186V155.342V155.42L933.193 158.384L933.31 161.127L932.023 161.192Z" fill="white"/>
<line x1="848" y1="169.653" x2="949" y2="169.653" stroke="url(#paint1_linear_357_17)"/>
<path d="M864.452 188.279L862.652 188.207L862.814 184.517L860.96 184.463L856.568 184.643L855.83 183.185L858.818 179.333L859.016 179.135L863.066 176.363L864.47 177.155L864.272 180.521L864.506 182.789L866.108 182.843L866.036 184.643L864.614 184.589L864.452 188.279ZM860.15 180.557L858.44 182.753L860.906 182.663H860.978L862.688 182.717L862.472 180.629V180.485L862.562 178.883L860.15 180.557ZM871.229 188.207L869.429 188.117L869.609 183.815L869.267 180.953V180.809L869.393 178.253L867.863 178.487L867.593 176.705L870.203 176.291L871.247 177.227L871.067 180.809L871.409 183.671L871.427 183.815L871.229 188.207ZM874.703 189.773L873.137 188.891L873.695 187.883L873.857 186.281L875.639 186.443L875.459 188.243L875.351 188.603L874.703 189.773ZM880.458 188.207L878.658 188.117L878.838 183.815L878.496 180.953V180.809L878.622 178.253L877.092 178.487L876.822 176.705L879.432 176.291L880.476 177.227L880.296 180.809L880.638 183.671L880.656 183.815L880.458 188.207ZM883.95 188.135L883.032 186.569L886.056 184.787L886.92 183.941H886.758L885.084 183.455L884.616 183.149L882.798 180.845L882.69 179.909L883.734 177.641L884.166 177.209L886.614 176.057L887.262 176.003L889.278 176.633L889.818 177.083L891.33 180.107V180.899L890.196 183.149L890.016 183.383L887.262 186.155L887.082 186.281L883.95 188.135ZM885.858 181.817L887.028 182.141L888.918 181.691L889.512 180.503L888.378 178.235L887.064 177.821L885.228 178.703L884.544 180.161L885.858 181.817ZM897.732 188.225L897.21 188.207L894.816 187.487L894.42 187.217L892.674 185.291L894.006 184.085L895.572 185.831L897.48 186.407L898.902 186.011L899.928 184.769L899.28 183.527L897.534 183.203L897.264 181.511L899.136 180.503L899.442 179.405L897.624 178.163L895.878 178.721L894.69 180.323L893.25 179.261L894.6 177.425L895.05 177.083L897.498 176.327L898.272 176.435L900.99 178.289L901.35 179.279L900.756 181.367L900.324 181.907L900.216 181.961L900.684 182.321L901.8 184.481L901.692 185.471L900.108 187.379L899.658 187.667L897.732 188.225ZM904.609 188.243L902.827 188.081L903.007 186.281L904.789 186.443L904.609 188.243ZM909.62 188.207L907.82 188.117L908 183.815L907.658 180.953V180.809L907.784 178.253L906.254 178.487L905.984 176.705L908.594 176.291L909.638 177.227L909.458 180.809L909.8 183.671L909.818 183.815L909.62 188.207ZM913.04 188.153L912.374 186.623L914.948 184.049L915.11 183.923L917.45 182.429L918.926 180.269L917.918 178.793L916.46 178.145L914.624 178.739L913.184 180.359L911.852 179.171L913.436 177.371L913.832 177.101L916.226 176.327L916.874 176.363L918.872 177.263L919.25 177.569L920.762 179.747V180.773L918.836 183.599L918.566 183.851L916.154 185.399L915.272 186.281L917.666 186.191H917.756L920.978 186.371L920.87 188.153L917.684 187.991L913.04 188.153ZM927.188 188.207H926.648L923.858 187.307L923.39 186.947L922.328 185.309L923.822 184.337L924.722 185.687L926.918 186.407L928.7 185.831L929.456 184.391L928.934 182.789L927.44 182.141L923.282 181.601L922.634 180.233L924.704 176.813L925.478 176.363H929.87V178.163H925.982L924.884 179.981L927.8 180.359L928.034 180.431L930.032 181.295L930.518 181.835L931.274 184.211L931.22 184.895L930.122 187.001L929.6 187.433L927.188 188.207ZM936.499 188.099L934.519 186.803L934.195 186.389L932.647 182.663V181.943L934.303 178.199L934.609 177.821L936.481 176.525L937.453 176.507L939.451 177.731L939.829 178.163L941.323 181.979V182.645L939.847 186.299L939.505 186.713L937.507 188.099H936.499ZM935.743 185.453L936.985 186.263L938.281 185.381L939.523 182.303L938.263 179.117L937.021 178.343L935.833 179.153L934.447 182.321L935.743 185.453Z" fill="white"/>
<path d="M1 292.966L7.39015 315.156L11.8633 275.954L20.1705 301.103L25.2826 292.966L31.6727 320.334L50.2042 243.409C57.2334 235.027 71.1639 214.711 70.6527 200.509L84.072 213.084L89.8232 194.592L98.1303 206.427L108.994 198.29L117.94 200.509L123.691 194.592L128.803 210.865L144.778 215.302L156.281 198.29L162.671 206.427L168.422 187.196L182.48 206.427L189.51 196.811L195.261 236.752L220.821 171.663L232.324 183.497L241.909 177.58L253.411 160.841L261.079 141.61L271.304 145.309L281.528 134.954L294.308 141.61L306.449 110.545H314.118L321.786 97.9708L326.259 102.409L333.288 93.5328L354.376 100.19L359.488 83.9173L365.878 90.5742L383.77 82.438L402.941 113.504L411.887 103.888L417.638 124.598L426.584 118.681L431.057 129.776L440.004 128.297L452.145 130.516C454.914 142.104 461.219 166.019 464.286 168.978H472.593L483.457 193.386L505.183 190.428L510.934 213.357L516.046 220.014H542.246L555.665 200.043L562.056 213.357H578.031L581.226 237.026L595.284 272.529H609.982L616.372 286.583L620.845 336.14L634.903 362.767L641.932 358.329L648.962 333.921L661.742 342.057L668.771 278.447L687.303 231.848L692.415 177.854L702 173.672" stroke="url(#paint2_linear_357_17)" stroke-width="2" stroke-linecap="round"/>
<path d="M740.992 17.1186L740.992 17.1187C741.119 17.0814 741.23 17.0038 741.309 16.8976C741.388 16.7915 741.431 16.6625 741.43 16.5301L741.43 16.5279L741.43 4.71374V4.70933L741.43 4.70933C741.43 4.70087 741.428 4.69251 741.425 4.68491C741.421 4.67732 741.415 4.6707 741.409 4.6656C741.402 4.66049 741.394 4.65704 741.386 4.65551L741.476 4.16372L741.386 4.65551C741.378 4.65414 741.371 4.65436 741.363 4.65615C739.746 5.16692 738.071 5.47487 736.378 5.57291L736.363 5.57374H736.349C734.578 5.57374 733.106 4.985 731.729 4.43398L731.698 4.4217C730.294 3.85994 728.983 3.34118 727.419 3.34118H727.417C725.859 3.33585 724.311 3.59041 722.836 4.09437L722.174 4.32054V3.62124V1.7249C722.174 1.63547 722.139 1.5497 722.076 1.48646C722.012 1.42322 721.927 1.3877 721.837 1.3877C721.748 1.3877 721.662 1.42322 721.599 1.48646C721.536 1.5497 721.5 1.63547 721.5 1.7249V24.0505C721.5 24.1399 721.536 24.2257 721.599 24.2889C721.662 24.3522 721.748 24.3877 721.837 24.3877C721.927 24.3877 722.012 24.3522 722.076 24.2889C722.139 24.2257 722.174 24.1399 722.174 24.0505V17.0166V16.6591L722.513 16.5435C724.092 16.0036 725.75 15.7309 727.419 15.7365C727.42 15.7365 727.42 15.7365 727.42 15.7365L727.419 16.2365L740.992 17.1186ZM740.992 17.1186L740.983 17.1213M740.992 17.1186L740.983 17.1213M741.93 4.71374C741.931 4.62725 741.912 4.54178 741.873 4.46417C741.835 4.38657 741.779 4.31897 741.71 4.2668L741.93 4.71374ZM741.93 4.71374V16.5279V4.71374ZM740.983 17.1213C739.474 17.594 737.913 17.8787 736.335 17.9691L740.983 17.1213Z" stroke="white"/>
<line x1="731.965" y1="32.8877" x2="731.965" y2="372.888" stroke="#464C69" stroke-dasharray="6 6"/>
<path d="M788.063 17.5984C786.51 18.0849 784.904 18.3773 783.279 18.4691C779.93 18.4691 777.698 16.2365 774.349 16.2365C772.735 16.231 771.132 16.4946 769.605 17.0166V24.0505C769.605 24.2725 769.516 24.4855 769.359 24.6425C769.202 24.7995 768.99 24.8877 768.767 24.8877C768.545 24.8877 768.332 24.7995 768.175 24.6425C768.018 24.4855 767.93 24.2725 767.93 24.0505V1.7249C767.93 1.50286 768.018 1.28992 768.175 1.13291C768.332 0.975901 768.545 0.887695 768.767 0.887695C768.99 0.887695 769.202 0.975901 769.359 1.13291C769.516 1.28992 769.605 1.50286 769.605 1.7249V3.62124C771.132 3.0993 772.735 2.83567 774.349 2.84118C777.698 2.84118 779.93 5.07374 783.279 5.07374C784.934 4.97794 786.57 4.67669 788.151 4.17692C788.234 4.15264 788.321 4.14811 788.406 4.16372C788.491 4.17933 788.572 4.21463 788.641 4.2668C788.71 4.31897 788.765 4.38657 788.804 4.46417C788.842 4.54178 788.861 4.62725 788.86 4.71374V16.5279C788.862 16.7687 788.784 17.0033 788.64 17.1964C788.497 17.3894 788.294 17.5305 788.063 17.5984Z" fill="white"/>
<line x1="778.895" y1="32.8877" x2="778.895" y2="373.888" stroke="#464C69" stroke-dasharray="6 6"/>
<g filter="url(#filter0_d_357_17)">
<ellipse cx="704.5" cy="173.671" rx="4.4" ry="4.48527" fill="white"/>
</g>
<ellipse cx="704.5" cy="173.673" rx="5.5" ry="5.60659" fill="white" fill-opacity="0.2"/>
<ellipse cx="704.5" cy="173.673" rx="3.85" ry="3.92461" fill="url(#paint3_radial_357_17)"/>
<defs>
<filter id="filter0_d_357_17" x="681.3" y="150.386" width="46.4" height="46.5706" filterUnits="userSpaceOnUse" color-interpolation-filters="sRGB">
<feFlood flood-opacity="0" result="BackgroundImageFix"/>
<feColorMatrix in="SourceAlpha" type="matrix" values="0 0 0 0 0 0 0 0 0 0 0 0 0 0 0 0 0 0 127 0" result="hardAlpha"/>
<feMorphology radius="6" operator="dilate" in="SourceAlpha" result="effect1_dropShadow_357_17"/>
<feOffset/>
<feGaussianBlur stdDeviation="6.4"/>
<feComposite in2="hardAlpha" operator="out"/>
<feColorMatrix type="matrix" values="0 0 0 0 1 0 0 0 0 1 0 0 0 0 1 0 0 0 0.74 0"/>
<feBlend mode="normal" in2="BackgroundImageFix" result="effect1_dropShadow_357_17"/>
<feBlend mode="normal" in="SourceGraphic" in2="effect1_dropShadow_357_17" result="shape"/>
</filter>
<linearGradient id="paint0_linear_357_17" x1="838.107" y1="139.153" x2="966.582" y2="151.191" gradientUnits="userSpaceOnUse">
<stop offset="0.0189512" stop-color="#0064FB"/>
<stop offset="1" stop-color="#1ECDF8"/>
</linearGradient>
<linearGradient id="paint1_linear_357_17" x1="948.5" y1="170.153" x2="847.5" y2="170.153" gradientUnits="userSpaceOnUse">
<stop stop-color="white" stop-opacity="0"/>
<stop offset="0.535007" stop-color="white" stop-opacity="0.464993"/>
<stop offset="1" stop-color="white" stop-opacity="0"/>
</linearGradient>
<linearGradient id="paint2_linear_357_17" x1="33.1888" y1="82.438" x2="706.895" y2="161.961" gradientUnits="userSpaceOnUse">
<stop offset="0.0189512" stop-color="#0064FB"/>
<stop offset="1" stop-color="#1ECDF8"/>
</linearGradient>
<radialGradient id="paint3_radial_357_17" cx="0" cy="0" r="1" gradientUnits="userSpaceOnUse" gradientTransform="translate(704.5 173.673) rotate(90) scale(3.92461 3.85)">
<stop stop-color="white"/>
<stop offset="1" stop-color="white" stop-opacity="0"/>
</radialGradient>
</defs>
</svg>
