<svg width="70" height="70" viewBox="0 0 70 70" fill="none" xmlns="http://www.w3.org/2000/svg">
<path d="M30.625 2.52591C33.3323 0.962871 36.6677 0.962871 39.375 2.52591L60.9359 14.9741C63.6432 16.5371 65.3109 19.4257 65.3109 22.5518V47.4482C65.3109 50.5743 63.6432 53.4629 60.9359 55.0259L39.375 67.4741C36.6677 69.0371 33.3323 69.0371 30.625 67.4741L9.06411 55.0259C6.35685 53.4629 4.68911 50.5743 4.68911 47.4482V22.5518C4.68911 19.4257 6.35685 16.5371 9.06411 14.9741L30.625 2.52591Z" fill="#D9D9D9"/>
<path d="M30.625 2.52591C33.3323 0.962871 36.6677 0.962871 39.375 2.52591L60.9359 14.9741C63.6432 16.5371 65.3109 19.4257 65.3109 22.5518V47.4482C65.3109 50.5743 63.6432 53.4629 60.9359 55.0259L39.375 67.4741C36.6677 69.0371 33.3323 69.0371 30.625 67.4741L9.06411 55.0259C6.35685 53.4629 4.68911 50.5743 4.68911 47.4482V22.5518C4.68911 19.4257 6.35685 16.5371 9.06411 14.9741L30.625 2.52591Z" fill="url(#paint0_linear_361_1772)"/>
<path d="M31.7078 9.94878C33.7382 8.7765 36.2398 8.7765 38.2703 9.94878L55.0452 19.6338C57.0757 20.8061 58.3265 22.9725 58.3265 25.3171V44.6872C58.3265 47.0317 57.0757 49.1982 55.0452 50.3705L38.2703 60.0555C36.2398 61.2278 33.7382 61.2278 31.7078 60.0555L14.9328 50.3705C12.9024 49.1982 11.6515 47.0317 11.6515 44.6872V25.3171C11.6515 22.9725 12.9024 20.8061 14.9328 19.6338L31.7078 9.94878Z" stroke="#040A2F" stroke-width="4.375"/>
<path d="M33.3597 27.4359C34.271 26.5247 35.7484 26.5247 36.6596 27.4359L42.5703 33.3466C43.4815 34.2578 43.4815 35.7352 42.5703 36.6465L36.6596 42.5571C35.7484 43.4684 34.271 43.4684 33.3597 42.5571L27.449 36.6465C26.5378 35.7352 26.5378 34.2578 27.449 33.3466L33.3597 27.4359Z" fill="#040A2F"/>

<defs>
<linearGradient id="paint0_linear_361_1772" x1="-16.1875" y1="-38.6842" x2="74.256" y2="-33.2295" gradientUnits="userSpaceOnUse">
<stop offset="0.0189512" stop-color="#0064FB"/>
<stop offset="1" stop-color="#1ECDF8"/>
</linearGradient>
<linearGradient id="paint1_linear_361_1772" x1="78" y1="35" x2="317" y2="35" gradientUnits="userSpaceOnUse">
<stop stop-color="#02ED8E"/>
<stop offset="0.5" stop-color="#00DD7B"/>
<stop offset="1" stop-color="#00BB5C"/>
</linearGradient>
</defs>
</svg>
