<svg width="42" height="42" viewBox="0 0 42 42" fill="none" xmlns="http://www.w3.org/2000/svg">
<path fill-rule="evenodd" clip-rule="evenodd" d="M21 25.5C21 23.7098 21.7112 21.9929 22.977 20.727C24.2429 19.4612 25.9598 18.75 27.75 18.75H36.75C37.9435 18.75 39.0881 19.2241 39.932 20.068C40.7759 20.9119 41.25 22.0565 41.25 23.25V27.75C41.25 28.9435 40.7759 30.0881 39.932 30.932C39.0881 31.7759 37.9435 32.25 36.75 32.25H27.75C25.9598 32.25 24.2429 31.5388 22.977 30.273C21.7112 29.0071 21 27.2902 21 25.5ZM27.75 23.25C27.1533 23.25 26.581 23.4871 26.159 23.909C25.7371 24.331 25.5 24.9033 25.5 25.5C25.5 26.0967 25.7371 26.669 26.159 27.091C26.581 27.5129 27.1533 27.75 27.75 27.75H36.75V23.25H27.75Z" fill="url(#paint0_linear_130_611)"/>
<path fill-rule="evenodd" clip-rule="evenodd" d="M21.675 1.42501C22.0956 1.01275 22.6611 0.78183 23.25 0.78183C23.8389 0.78183 24.4044 1.01275 24.825 1.42501L30.9 7.50001H24.6L21.675 4.57501C21.2627 4.15442 21.0318 3.58895 21.0318 3.00001C21.0318 2.41106 21.2627 1.8456 21.675 1.42501ZM21.9 7.50001L15.825 1.42501C15.4044 1.01275 14.8389 0.78183 14.25 0.78183C13.6611 0.78183 13.0956 1.01275 12.675 1.42501L6.6 7.50001H21.9ZM4.35 9.75001C3.31826 9.96039 2.39296 10.5259 1.73518 11.3482C1.07739 12.1704 0.728769 13.1973 0.75 14.25V36.75C0.75 39.225 2.775 41.25 5.25 41.25H32.25C33.4435 41.25 34.5881 40.7759 35.432 39.932C36.2759 39.0881 36.75 37.9435 36.75 36.75H27.75C24.7663 36.75 21.9048 35.5647 19.795 33.455C17.6853 31.3452 16.5 28.4837 16.5 25.5C16.5 22.5163 17.6853 19.6548 19.795 17.5451C21.9048 15.4353 24.7663 14.25 27.75 14.25H36.75C36.7823 13.2281 36.4657 12.2256 35.8522 11.4077C35.2388 10.5898 34.3651 10.0051 33.375 9.75001H4.125H4.35Z" fill="url(#paint1_linear_130_611)"/>
<defs>
<linearGradient id="paint0_linear_130_611" x1="21.9298" y1="18.75" x2="41.5641" y2="20.1402" gradientUnits="userSpaceOnUse">
<stop offset="0.0189512" stop-color="#0064FB"/>
<stop offset="1" stop-color="#1ECDF8"/>
</linearGradient>
<linearGradient id="paint1_linear_130_611" x1="2.40229" y1="0.78183" x2="37.424" y2="2.25257" gradientUnits="userSpaceOnUse">
<stop offset="0.0189512" stop-color="#0064FB"/>
<stop offset="1" stop-color="#1ECDF8"/>
</linearGradient>
</defs>
</svg>
