<svg width="95" height="95" viewBox="0 0 95 95" fill="none" xmlns="http://www.w3.org/2000/svg">
<g clip-path="url(#clip0_1943_40)">
<path d="M47.823 90.9375C52.7272 90.9375 56.7397 86.925 56.7397 82.0208H38.9064C38.9064 86.925 42.8743 90.9375 47.823 90.9375ZM74.573 64.1875V41.8958C74.573 28.2088 67.2614 16.7508 54.5105 13.7192V10.6875C54.5105 6.98708 51.5235 4 47.823 4C44.1226 4 41.1355 6.98708 41.1355 10.6875V13.7192C28.3401 16.7508 21.073 28.1642 21.073 41.8958V64.1875L15.3218 69.9388C12.513 72.7475 14.4747 77.5625 18.4426 77.5625H77.1589C81.1268 77.5625 83.1331 72.7475 80.3243 69.9388L74.573 64.1875Z" fill="url(#paint0_linear_1943_40)"/>
</g>
<defs>
<linearGradient id="paint0_linear_1943_40" x1="3.32227" y1="54.3542" x2="81.3223" y2="55.3542" gradientUnits="userSpaceOnUse">
<stop stop-color="#0064FB"/>
<stop offset="1" stop-color="#1DCAF8"/>
</linearGradient>
<clipPath id="clip0_1943_40">
<rect width="95" height="95" fill="white"/>
</clipPath>
</defs>
</svg>
