<svg width="410" height="361" viewBox="0 0 410 361" fill="none" xmlns="http://www.w3.org/2000/svg">
<g clip-path="url(#clip0_2339_20)">
<path d="M310.444 110.333C302.953 106.052 293.315 106.052 284.75 110.333L224.805 145.689L184.129 168.177L125.25 203.557C117.759 207.838 108.12 207.838 99.5556 203.557L53.5435 175.705C49.6305 173.399 46.3868 170.11 44.133 166.165C41.8792 162.219 40.6932 157.754 40.6924 153.209V99.6217C40.6924 91.0513 44.9788 82.4808 53.5435 77.1253L99.5556 50.3478C107.047 46.0585 116.685 46.0585 125.25 50.3478L171.262 78.1996C175.176 80.5051 178.421 83.7935 180.675 87.7392C182.928 91.6849 184.114 96.1511 184.113 100.696V136.044L224.789 112.473V76.0591C224.789 67.4886 220.511 58.9182 211.946 53.5627L126.315 3.23061C118.824 -1.05864 109.194 -1.05864 100.629 3.23061L12.843 54.6289C4.27832 58.9182 0 67.4886 0 76.0591V176.747C0 185.318 4.27832 193.864 12.843 199.244L99.5556 249.6C107.047 253.889 116.685 253.889 125.25 249.6L184.129 215.318L224.805 191.756L283.685 157.474C291.176 153.193 300.814 153.193 309.379 157.474L355.391 184.26C359.311 186.568 362.559 189.861 364.815 193.812C367.071 197.764 368.255 202.237 368.25 206.788V260.343C368.25 268.914 363.972 277.484 355.407 282.84L310.444 309.625C302.953 313.907 293.315 313.907 284.75 309.625L238.738 282.84C234.826 280.533 231.584 277.244 229.331 273.298C227.079 269.353 225.894 264.887 225.895 260.343V226.029L185.195 249.6V284.948C185.195 293.519 189.481 302.089 198.046 307.444L284.75 357.793C292.249 362.082 301.88 362.082 310.444 357.793L397.157 307.436C401.069 305.129 404.312 301.84 406.564 297.895C408.816 293.949 410.001 289.484 410 284.94V183.161C410 174.591 405.722 166.02 397.157 160.665L310.444 110.333Z" fill="#FF6557"/>
</g>
<defs>
<clipPath id="clip0_2339_20">
<rect width="410" height="361" fill="white"/>
</clipPath>
</defs>
</svg>
