<svg width="800" height="800" viewBox="0 0 800 800" fill="none" xmlns="http://www.w3.org/2000/svg">
<g clip-path="url(#clip0_1844_31)">
<path d="M400.001 800C346.025 800 293.635 789.416 244.284 768.543C196.645 748.392 153.874 719.558 117.159 682.844C80.4409 646.126 51.6083 603.355 31.4584 555.716C10.5838 506.366 0 453.975 0 400.001C0 346.026 10.5838 293.635 31.457 244.284C51.6069 196.646 80.4409 153.874 117.158 117.159C153.873 80.4422 196.644 51.6083 244.283 31.4584C293.635 10.5838 346.026 0 400.001 0C453.977 0 506.366 10.5838 555.716 31.457C603.358 51.6083 646.128 80.4422 682.844 117.158C719.562 153.876 748.394 196.648 768.543 244.283C789.416 293.634 800 346.025 800 399.999C800 453.973 789.416 506.362 768.543 555.714C748.396 603.352 719.56 646.123 682.844 682.842C646.126 719.56 603.355 748.393 555.716 768.542C506.366 789.416 453.975 800 400.001 800ZM400.001 1.34449C346.206 1.34449 293.993 11.892 244.808 32.6953C197.328 52.778 154.7 81.5151 118.108 118.108C81.5138 154.701 52.778 197.33 32.6953 244.808C11.892 293.993 1.34449 346.206 1.34449 400.001C1.34449 453.795 11.892 506.01 32.6953 555.194C52.7766 602.671 81.5138 645.3 118.108 681.893C154.701 718.485 197.328 747.222 244.808 767.303C293.992 788.108 346.205 798.656 400.001 798.656C453.795 798.656 506.01 788.107 555.194 767.303C602.671 747.222 645.3 718.486 681.893 681.893C718.489 645.296 747.225 602.669 767.303 555.194C788.108 506.007 798.656 453.792 798.656 400.001C798.656 346.206 788.107 293.992 767.303 244.808C747.223 197.331 718.486 154.704 681.893 118.108C645.3 81.5165 602.673 52.7793 555.194 32.6953C506.008 11.892 453.794 1.34449 400.001 1.34449ZM400.001 742.403C308.542 742.403 222.556 706.788 157.885 642.115C93.2135 577.444 57.598 491.458 57.598 400.001C57.598 308.542 93.2135 222.556 157.885 157.885C222.556 93.2135 308.542 57.598 400.001 57.598C491.458 57.598 577.445 93.2135 642.115 157.885C706.788 222.556 742.403 308.542 742.403 400.001C742.403 491.458 706.788 577.445 642.115 642.115C577.444 706.786 491.458 742.403 400.001 742.403ZM400.001 58.9425C308.901 58.9425 223.254 94.4182 158.835 158.835C94.4168 223.253 58.9425 308.901 58.9425 400.001C58.9425 491.101 94.4182 576.747 158.835 641.165C223.254 705.582 308.901 741.059 400.001 741.059C491.101 741.059 576.747 705.582 641.165 641.165C705.582 576.747 741.059 491.101 741.059 400.001C741.059 308.901 705.582 223.254 641.165 158.835C576.747 94.4182 491.101 58.9425 400.001 58.9425Z" fill="black"/>
<path d="M682.367 117.633C645.711 80.9769 603.013 52.1941 555.453 32.0765C506.185 11.2369 453.883 0.671875 400 0.671875C346.116 0.671875 293.814 11.2369 244.545 32.0765C196.986 52.1914 154.287 80.9769 117.632 117.633C80.9756 154.288 52.1914 196.988 32.0751 244.546C11.2369 293.814 0.671875 346.117 0.671875 400C0.671875 453.883 11.2369 506.187 32.0765 555.454C52.1914 603.013 80.9769 645.713 117.633 682.369C154.288 719.024 196.988 747.808 244.546 767.924C293.815 788.764 346.117 799.329 400.002 799.329C453.885 799.329 506.188 788.764 555.456 767.924C603.014 747.809 645.715 719.024 682.37 682.369C719.025 645.713 747.811 603.014 767.925 555.454C788.764 506.185 799.33 453.883 799.33 400C799.33 346.117 788.765 293.814 767.925 244.545C747.808 196.988 719.022 154.288 682.367 117.633ZM400 726C211.267 726 67.5 588.732 67.5 400C67.5 211.267 211.269 67 400.002 67C588.733 67 730 211.267 730 400C730 588.732 588.732 726 400 726Z" fill="#FF685A"/>
<path d="M235.84 285.727V216H564.355V285.727H441.895V616H358.301V285.727H235.84Z" fill="#FF685A"/>
</g>
<defs>
<clipPath id="clip0_1844_31">
<rect width="800" height="800" fill="white"/>
</clipPath>
</defs>
</svg>
