<svg width="800" height="800" viewBox="0 0 800 800" fill="none" xmlns="http://www.w3.org/2000/svg">
<path d="M681.696 116.961C645.039 80.3051 602.341 51.5222 554.781 31.4046C505.514 10.565 453.212 0 399.328 0C345.444 0 293.142 10.565 243.873 31.4046C196.314 51.5195 153.615 80.3051 116.96 116.961C80.3037 153.616 51.5195 196.316 31.4033 243.874C10.565 293.142 0 345.445 0 399.328C0 453.212 10.565 505.515 31.4046 554.782C51.5195 602.341 80.3051 645.041 116.961 681.697C153.616 718.352 196.316 747.136 243.874 767.252C293.143 788.092 345.445 798.657 399.33 798.657C453.213 798.657 505.516 788.092 554.784 767.252C602.342 747.137 645.043 718.352 681.698 681.697C718.353 645.041 747.139 602.342 767.254 554.782C788.092 505.514 798.658 453.212 798.658 399.328C798.658 345.445 788.093 293.142 767.254 243.873C747.136 196.316 718.35 153.616 681.696 116.961ZM399.33 727.828C210.597 727.828 65.8281 588.06 65.8281 399.328C65.8281 210.596 210.597 66.8281 399.33 66.8281C588.061 66.8281 725.828 210.596 725.828 399.328C725.828 588.06 588.061 727.828 399.33 727.828Z" fill="#111111"/>
<path d="M235.84 285.727V216H564.355V285.727H441.895V616H358.301V285.727H235.84Z" fill="#111111"/>
</svg>
