<svg width="212" height="212" viewBox="0 0 212 212" fill="none" xmlns="http://www.w3.org/2000/svg">
<path d="M106.033 211.456C164.921 211.456 211.657 163.846 211.657 105.967C211.657 47.1543 163.986 0.477539 106.033 0.477539C47.1445 0.477539 0.407959 48.0878 0.407959 105.967C0.407959 163.846 48.0793 211.456 106.033 211.456Z" fill="black"/>
<path fill-rule="evenodd" clip-rule="evenodd" d="M163.986 67.6914C163.051 66.7578 117.249 39.6853 111.641 37.8183C109.772 36.8847 105.098 35.9512 102.294 36.8847C99.4895 37.8183 50.8834 65.8243 49.014 67.6914C48.0792 68.6249 47.1445 70.492 46.2098 71.4255C45.275 73.2926 45.275 74.2261 45.275 106.9V140.507L51.8182 144.241C55.5571 146.108 58.3613 147.975 58.3613 147.975C59.296 147.975 103.228 77.9603 103.228 77.0267C103.228 76.0932 92.9464 76.0932 90.1422 77.0267C86.4032 77.9603 83.599 79.8273 81.7296 81.6944C80.7948 82.6279 75.1864 91.9633 67.7086 102.232C61.1655 112.501 55.5571 121.836 55.5571 121.836C55.5571 121.836 55.5571 112.501 55.5571 99.4316V76.0932L56.4918 75.1597C58.3613 73.2926 106.033 46.2201 107.902 46.2201C108.837 46.2201 109.772 46.2201 120.988 52.7548C124.727 54.6219 135.009 60.2231 143.422 65.8243C151.834 70.492 159.312 75.1597 160.247 76.0932L161.182 77.0267V125.571L137.813 89.1627C136.879 87.2956 135.944 85.4285 135.009 84.495C135.009 84.495 134.075 86.3621 128.466 95.6974C127.531 96.631 126.597 98.498 126.597 99.4316L125.662 101.299L126.597 102.232L127.531 103.166C127.531 103.166 127.531 104.099 128.466 104.099L130.336 106.9C130.336 106.9 130.336 107.833 131.27 107.833C132.205 108.767 133.14 110.634 133.14 111.568C133.14 111.568 133.14 111.568 133.14 112.501L152.769 144.241L150.9 145.175C149.965 146.108 149.03 146.108 148.096 146.108L123.792 108.767L122.858 107.833L120.988 111.568L111.641 126.504L130.336 156.377C127.531 158.244 111.641 169.447 110.706 169.447C109.772 169.447 88.2727 155.444 89.2074 154.51C89.2074 154.51 95.7506 143.308 103.228 130.238C109.772 119.036 118.184 105.033 123.792 95.6974C130.336 84.495 133.14 78.8938 133.14 78.8938C133.14 78.8938 128.466 78.8938 122.858 78.8938H113.51L92.0116 114.368C84.5338 127.438 77.0559 139.574 73.317 146.108C66.7739 147.042 64.9044 148.909 64.9044 148.909L63.9697 150.776L80.7948 160.111C90.1422 165.713 98.5547 170.38 100.424 171.314C103.228 173.181 107.902 173.181 109.772 173.181C111.641 172.247 160.247 144.241 163.051 142.374C163.986 141.441 164.921 140.507 165.855 138.64L166.79 135.839V105.033V74.2261L165.855 72.3591C165.855 70.492 163.986 68.6249 163.986 67.6914Z" fill="white"/>
<path d="M159.312 124.638L131.27 81.6953L120.988 98.4989L148.096 142.375L160.247 136.774L159.312 124.638Z" fill="#24A2EE"/>
<path d="M146.226 147.976L118.184 105.033L106.033 123.704L128.466 159.178L142.487 153.577L146.226 147.976Z" fill="#24A2EE"/>
<path fill-rule="evenodd" clip-rule="evenodd" d="M54.6224 76.0932L106.033 46.2201L157.443 76.0932V135.839L106.033 165.713L67.7086 144.241L63.035 152.643L105.098 176.915C106.033 177.848 106.967 177.848 107.902 176.915L166.79 143.308C167.725 142.374 168.66 141.441 168.66 140.507V73.2926C168.66 72.359 167.725 71.4255 166.79 70.492L107.902 36.8847C106.967 35.9512 106.033 35.9512 105.098 36.8847L46.2098 69.5584C45.2751 70.492 44.3403 71.4255 44.3403 72.359V139.574C44.3403 140.507 45.2751 141.441 46.2098 142.374L58.3613 148.909L63.9697 140.507L55.5571 135.839V76.0932H54.6224Z" fill="#98BCDC"/>
<path d="M128.466 76.0938H108.837L63.0349 150.777L78.9254 160.112L128.466 76.0938Z" fill="white"/>
<path d="M78.9254 83.5623C83.5991 76.094 96.6853 76.094 102.294 77.0275L57.4266 148.91C55.5571 147.976 51.8182 146.109 49.014 144.242C45.2751 142.375 44.3403 142.375 44.3403 139.574V135.84C54.6224 120.904 74.2518 91.0305 78.9254 83.5623Z" fill="white"/>
</svg>
