<svg width="233" height="234" viewBox="0 0 233 234" fill="none" xmlns="http://www.w3.org/2000/svg">
<path d="M116.435 233.044C180.596 233.044 232.609 181.031 232.609 116.87C232.609 52.7091 180.596 0.696289 116.435 0.696289C52.2736 0.696289 0.260742 52.7091 0.260742 116.87C0.260742 181.031 52.2736 233.044 116.435 233.044Z" fill="#F3BA2F"/>
<path fill-rule="evenodd" clip-rule="evenodd" d="M146.565 129.224L164.089 146.698L116.451 194.286L68.864 146.698L86.3883 129.224L116.451 159.287L146.565 129.224ZM116.451 99.1107L134.228 116.887L116.451 134.663L98.7258 116.937V116.887L101.848 113.765L103.359 112.254L116.451 99.1107ZM56.5265 99.3625L74.0508 116.887L56.5265 134.361L39.0022 116.836L56.5265 99.3625ZM176.376 99.3625L193.901 116.887L176.376 134.361L158.852 116.836L176.376 99.3625ZM116.451 39.4375L164.039 87.025L146.515 104.549L116.451 74.4357L86.3883 104.499L68.864 87.025L116.451 39.4375Z" fill="#131415"/>
</svg>
