<svg width="225" height="224" viewBox="0 0 225 224" fill="none" xmlns="http://www.w3.org/2000/svg">
<g clip-path="url(#clip0_2483_83)">
<path d="M112.428 223.732C174.077 223.732 224.053 173.756 224.053 112.107C224.053 50.4586 174.077 0.482422 112.428 0.482422C50.7797 0.482422 0.803467 50.4586 0.803467 112.107C0.803467 173.756 50.7797 223.732 112.428 223.732Z" fill="#627EEA"/>
<path d="M115.903 28.3887V90.2709L168.206 113.642L115.903 28.3887Z" fill="white" fill-opacity="0.602"/>
<path d="M115.903 28.3887L63.593 113.642L115.903 90.2709V28.3887Z" fill="white"/>
<path d="M115.903 153.744V195.792L168.241 123.382L115.903 153.744Z" fill="white" fill-opacity="0.602"/>
<path d="M115.903 195.792V153.737L63.5929 123.382L115.903 195.792Z" fill="white"/>
<path d="M115.903 144.012L168.206 113.642L115.903 90.2852V144.012Z" fill="white" fill-opacity="0.2"/>
<path d="M63.592 113.642L115.902 144.012V90.2852L63.592 113.642Z" fill="white" fill-opacity="0.602"/>
</g>
<defs>
<clipPath id="clip0_2483_83">
<rect width="223.25" height="223.25" fill="white" transform="translate(0.803467 0.482422)"/>
</clipPath>
</defs>
</svg>
