<svg width="233" height="233" viewBox="0 0 233 233" fill="none" xmlns="http://www.w3.org/2000/svg">
<g clip-path="url(#clip0_2483_113)">
<path d="M116.241 232.482C180.439 232.482 232.482 180.439 232.482 116.241C232.482 52.0429 180.439 0 116.241 0C52.0429 0 0 52.0429 0 116.241C0 180.439 52.0429 232.482 116.241 232.482Z" fill="#FF0420"/>
<path d="M82.3452 147.115C75.4172 147.115 69.7446 145.487 65.3275 142.232C60.9568 138.931 58.7715 134.189 58.7715 128.097C58.7715 126.796 58.911 125.261 59.19 123.401C59.9339 119.217 61.0033 114.195 62.3982 108.29C66.3504 92.2952 76.5796 84.2979 93.0394 84.2979C97.503 84.2979 101.548 85.0418 105.082 86.5762C108.616 88.0176 111.405 90.2494 113.451 93.2252C115.497 96.1544 116.52 99.6417 116.52 103.687C116.52 104.896 116.381 106.43 116.102 108.29C115.218 113.451 114.195 118.519 112.94 123.401C110.894 131.352 107.407 137.35 102.385 141.302C97.41 145.208 90.7145 147.115 82.3452 147.115ZM83.6006 134.56C86.8553 134.56 89.5986 133.584 91.8769 131.678C94.2018 129.771 95.8756 126.842 96.8521 122.843C98.2005 117.357 99.2234 112.614 99.9208 108.522C100.153 107.314 100.293 106.058 100.293 104.756C100.293 99.4557 97.5495 96.8054 92.0164 96.8054C88.7617 96.8054 85.9719 97.7818 83.6471 99.6882C81.3687 101.595 79.7414 104.524 78.7649 108.522C77.6955 112.428 76.6726 117.171 75.6032 122.843C75.3707 124.006 75.2312 125.215 75.2312 126.517C75.1847 131.91 78.021 134.56 83.6006 134.56Z" fill="white"/>
<path d="M120.565 146.278C119.914 146.278 119.449 146.092 119.077 145.673C118.798 145.209 118.705 144.697 118.798 144.093L130.841 87.367C130.934 86.716 131.259 86.2046 131.817 85.7861C132.329 85.3676 132.887 85.1816 133.491 85.1816H156.693C163.156 85.1816 168.317 86.53 172.223 89.1803C176.175 91.8771 178.174 95.7363 178.174 100.804C178.174 102.246 177.988 103.78 177.663 105.361C176.221 112.057 173.292 116.985 168.828 120.193C164.458 123.402 158.46 124.983 150.834 124.983H139.071L135.072 144.093C134.933 144.744 134.654 145.255 134.096 145.673C133.584 146.092 133.026 146.278 132.422 146.278H120.565ZM151.439 112.94C153.903 112.94 155.995 112.289 157.809 110.941C159.669 109.592 160.878 107.686 161.482 105.175C161.668 104.199 161.761 103.315 161.761 102.571C161.761 100.897 161.25 99.5955 160.273 98.7121C159.297 97.7822 157.576 97.3172 155.205 97.3172H144.743L141.442 112.94H151.439Z" fill="white"/>
</g>
<defs>
<clipPath id="clip0_2483_113">
<rect width="232.482" height="232.482" fill="white"/>
</clipPath>
</defs>
</svg>
