<svg width="214" height="214" viewBox="0 0 214 214" fill="none" xmlns="http://www.w3.org/2000/svg">
<path d="M106.773 0.230469C165.691 0.230469 213.446 47.9858 213.446 106.904C213.446 165.822 165.691 213.535 106.815 213.535C47.8974 213.535 0.183988 165.78 0.183988 106.904C0.142023 47.9858 47.8974 0.230469 106.773 0.230469Z" fill="#8247E5"/>
<mask id="mask0_2484_125" style="mask-type:luminance" maskUnits="userSpaceOnUse" x="36" y="46" width="140" height="123">
<path d="M175.93 46.3496H36.1473V168.843H175.93V46.3496Z" fill="white"/>
</mask>
<g mask="url(#mask0_2484_125)">
<path d="M141.73 83.6563C139.17 82.1876 135.896 82.1876 133.001 83.6563L112.606 95.742L98.7581 103.422L78.7411 115.465C76.1813 116.934 72.9081 116.934 70.0126 115.465L54.3599 105.939C51.8 104.471 49.9956 101.533 49.9956 98.2599V79.9635C49.9956 77.026 51.4643 74.1304 54.3599 72.284L70.0126 63.1358C72.5724 61.667 75.8456 61.667 78.7411 63.1358L94.3938 72.6617C96.9536 74.1304 98.7581 77.0679 98.7581 80.3412V92.4269L112.606 84.3697V71.9483C112.606 69.0108 111.138 66.1153 108.242 64.2688L79.1188 47.0635C76.559 45.5947 73.2858 45.5947 70.3902 47.0635L40.5536 64.6465C37.6581 66.1153 36.1893 69.0528 36.1893 71.9483V106.317C36.1893 109.255 37.6581 112.15 40.5536 113.997L70.0545 131.202C72.6143 132.671 75.8875 132.671 78.7831 131.202L98.8 119.494L112.648 111.437L132.665 99.7287C135.225 98.2599 138.498 98.2599 141.394 99.7287L157.046 108.877C159.606 110.346 161.411 113.283 161.411 116.556V134.853C161.411 137.79 159.942 140.686 157.046 142.532L141.771 151.68C139.212 153.149 135.938 153.149 133.043 151.68L117.348 142.532C114.788 141.063 112.984 138.126 112.984 134.853V123.145L99.1358 131.202V143.288C99.1358 146.225 100.605 149.121 103.5 150.967L133.001 168.172C135.561 169.641 138.834 169.641 141.73 168.172L171.23 150.967C173.79 149.498 175.595 146.561 175.595 143.288V108.541C175.595 105.604 174.126 102.708 171.23 100.862L141.73 83.6563Z" fill="white"/>
</g>
</svg>
