<svg width="224" height="230" viewBox="0 0 224 230" fill="none" xmlns="http://www.w3.org/2000/svg">
<path d="M111.666 0.847656H111.848C173.411 0.847656 223.337 50.7354 223.337 112.251V118.453C223.337 179.969 173.411 229.857 111.848 229.857H111.666C50.1024 229.857 0.176392 179.969 0.176392 118.453V112.251C0.176392 50.7354 50.1024 0.847656 111.666 0.847656Z" fill="black"/>
<path d="M159.447 87.0339C159.082 87.4444 158.625 87.7636 158.123 87.946C157.621 88.174 157.074 88.2652 156.526 88.2652H53.16C49.5091 88.2652 47.6381 83.7051 50.1937 80.969L67.1703 62.9565C67.5354 62.5461 67.9918 62.2269 68.5394 61.9989C69.0414 61.7709 69.5891 61.6797 70.1367 61.6797H173.913C177.61 61.6797 179.435 66.2854 176.834 69.0215L159.447 87.0339ZM159.447 167.566C158.671 168.341 157.621 168.797 156.526 168.797H53.16C49.5091 168.797 47.6381 164.328 50.1937 161.683L67.1703 144.081C67.5354 143.671 68.0374 143.351 68.5394 143.169C69.0414 142.941 69.5891 142.85 70.1367 142.85H173.913C177.61 142.85 179.435 147.364 176.834 150.009L159.447 167.566ZM159.447 103.496C158.671 102.721 157.621 102.265 156.526 102.265H53.16C49.5091 102.265 47.6381 106.734 50.1937 109.379L67.1703 126.981C67.5354 127.391 68.0374 127.71 68.5394 127.893C69.0414 128.121 69.5891 128.212 70.1367 128.212H173.913C177.61 128.212 179.435 123.697 176.834 121.052L159.447 103.496Z" fill="url(#paint0_linear_2484_124)"/>
<defs>
<linearGradient id="paint0_linear_2484_124" x1="56.9041" y1="170.134" x2="169.74" y2="60.1948" gradientUnits="userSpaceOnUse">
<stop stop-color="#CF41E8"/>
<stop offset="1" stop-color="#10F2B0"/>
</linearGradient>
</defs>
</svg>
