<svg width="227" height="218" viewBox="0 0 227 218" fill="none" xmlns="http://www.w3.org/2000/svg">
<path d="M113.404 217.546C175.884 217.546 226.491 168.979 226.491 109.095C226.491 49.2102 175.884 0.643555 113.404 0.643555C50.9252 0.643555 0.317993 49.2102 0.317993 109.095C0.317993 168.979 50.9686 217.546 113.404 217.546Z" fill="#FF060A"/>
<path d="M177.01 89.6246C170.771 84.0741 162.105 75.6183 155.086 69.6342L154.653 69.374C153.959 68.8537 153.18 68.4201 152.356 68.1165C135.372 65.0811 56.3412 50.9014 54.8248 51.0748C54.3915 51.1182 53.9582 51.2916 53.6116 51.5085L53.2216 51.812C52.745 52.289 52.355 52.8527 52.1384 53.5031L52.0518 53.7633V55.1943V55.4111C60.934 79.1741 96.0731 156.967 103.006 175.267C103.439 176.524 104.219 178.866 105.692 178.996H106.039C106.818 178.996 110.198 174.703 110.198 174.703C110.198 174.703 170.554 104.542 176.663 97.0831C177.443 96.1724 178.137 95.1751 178.743 94.1344C178.916 93.3105 178.83 92.4866 178.527 91.706C178.223 90.9255 177.66 90.1883 177.01 89.6246ZM125.623 97.8202L151.36 77.3529L166.481 90.7087L125.623 97.8202ZM115.614 96.476L71.2894 61.6121L143.041 74.3174L115.614 96.476ZM119.6 105.582L164.965 98.5574L113.101 158.529L119.6 105.582ZM65.2668 65.1245L111.931 103.067L105.172 158.572L65.2668 65.1245Z" fill="white"/>
</svg>
