<svg width="28" height="28" viewBox="0 0 28 28" xmlns="http://www.w3.org/2000/svg" xmlns:xlink="http://www.w3.org/1999/xlink">
    <defs>
        <path id="rnqhstq45a" d="M0 0h28v28H0z"/>
    </defs>
    <g fill="none" fill-rule="evenodd">
        <mask id="1umcttxy2b" fill="#fff">
            <use xlink:href="#rnqhstq45a"/>
        </mask>
        <use fill-opacity=".01" fill="#0C0D13" xlink:href="#rnqhstq45a"/>
        <path d="M14.474 6c3.246 0 6.075.32 7.855.587 1.1.16 1.99 1.013 2.2 2.133.209 1.227.471 3.04.471 5.28-.052 2.24-.262 4.053-.471 5.28a2.636 2.636 0 0 1-2.2 2.133 53.526 53.526 0 0 1-7.855.587c-3.195 0-6.075-.32-7.856-.587a2.636 2.636 0 0 1-2.2-2.133C4.21 18.053 4 16.24 4 14s.21-4.053.419-5.28a2.636 2.636 0 0 1 2.2-2.133A53.532 53.532 0 0 1 14.474 6zm3.635 9.326-2.967 1.562-.642.342-.642-.342-2.967-1.562v4.007h7.218v-4.007zM14.5 8.666l-7.219 3.048c1.199.64 2.404 1.273 3.61 1.905 1.205.632 2.41 1.265 3.609 1.905l1.802-.955 1.807-.95 1.444-.762 1.444-.762v4.19h.722v-4.57l-3.61-1.525L14.5 8.667z" fill="#CECECF" fill-rule="nonzero" mask="url(#1umcttxy2b)"/>
    </g>
</svg>
