<svg width="28" height="28" viewBox="0 0 28 28" xmlns="http://www.w3.org/2000/svg" xmlns:xlink="http://www.w3.org/1999/xlink">
    <defs>
        <path id="jb7uenouma" d="M0 0h28v28H0z"/>
    </defs>
    <g fill="none" fill-rule="evenodd">
        <mask id="vp81hhq7yb" fill="#fff">
            <use xlink:href="#jb7uenouma"/>
        </mask>
        <use fill-opacity=".01" fill="#0C0D13" xlink:href="#jb7uenouma"/>
        <path d="M13.35 14.57c.147.327.22.707.22 1.14 0 .5-.097.933-.29 1.3a1.83 1.83 0 0 1-.745.795c-.323.183-.712.275-1.165.275-.567 0-1.045-.145-1.435-.435a1.826 1.826 0 0 1-.725-1.155 4.514 4.514 0 0 1-.09-.68c0-.08.04-.12.12-.12h1.43c.08 0 .12.04.12.12.013.167.037.303.07.41.033.14.093.248.18.325a.48.48 0 0 0 .33.115c.12 0 .225-.037.315-.11a.56.56 0 0 0 .185-.31c.053-.193.08-.41.08-.65 0-.233-.027-.437-.08-.61-.107-.3-.277-.45-.51-.45-.133 0-.277.057-.43.17a.123.123 0 0 1-.07.02.136.136 0 0 1-.1-.04l-.72-.8a.171.171 0 0 1-.03-.08c0-.033.013-.063.04-.09l1.36-1.23c.013-.013.018-.027.015-.04-.003-.013-.015-.02-.035-.02H9.4a.116.116 0 0 1-.085-.035.116.116 0 0 1-.035-.085v-1.18c0-.033.012-.062.035-.085A.116.116 0 0 1 9.4 11h4c.033 0 .062.012.085.035a.116.116 0 0 1 .035.085v1.21c0 .06-.02.11-.06.15l-1.2 1.16c-.013.013-.018.027-.015.04.003.013.015.02.035.02.5.113.857.403 1.07.87zm3.07 3.55c-.687 0-1.235-.203-1.645-.61-.41-.407-.615-.953-.615-1.64v-2.74c0-.68.205-1.222.615-1.625.41-.403.958-.605 1.645-.605.693 0 1.247.202 1.66.605.413.403.62.945.62 1.625v2.74c0 .687-.207 1.233-.62 1.64-.413.407-.967.61-1.66.61zm0-1.43a.564.564 0 0 0 .455-.195c.11-.13.165-.308.165-.535v-2.9c0-.227-.055-.405-.165-.535a.564.564 0 0 0-.455-.195.542.542 0 0 0-.435.195c-.11.13-.165.308-.165.535v2.9c0 .227.055.405.165.535.11.13.255.195.435.195zM7.1 19.194h14.104V9.93H7.1v9.263zM23 20.777c0 .672-.547 1.223-1.213 1.223H6.212A1.223 1.223 0 0 1 5 20.777V6.225C5 5.552 5.545 5 6.212 5h2.113v1.297c-.384.184-.65.578-.65 1.035 0 .632.507 1.145 1.133 1.145.625 0 1.132-.513 1.132-1.145 0-.455-.264-.849-.646-1.032V5h2.701v1.297c-.385.184-.65.578-.65 1.035 0 .632.506 1.145 1.132 1.145.626 0 1.134-.513 1.134-1.145 0-.455-.264-.849-.647-1.032V5h2.593v1.297a1.145 1.145 0 0 0-.651 1.035c0 .632.507 1.145 1.133 1.145s1.132-.513 1.132-1.145c0-.455-.262-.849-.645-1.032V5h2.532v1.297c-.385.184-.65.578-.65 1.035 0 .632.506 1.145 1.132 1.145.626 0 1.134-.513 1.134-1.145 0-.455-.264-.849-.646-1.032V5h1.759C22.453 5 23 5.552 23 6.225v14.552z" fill="#CECECF" mask="url(#vp81hhq7yb)"/>
    </g>
</svg>
