<svg width="28" height="28" viewBox="0 0 28 28" xmlns="http://www.w3.org/2000/svg">
    <g fill="none" fill-rule="evenodd">
        <path fill="#0C0D13" opacity=".01" d="M0 0h28v28H0z"/>
        <path d="M17.324 11.978h-3.635l-.068 3.454h1.67c0-.199.008-.326.024-.38a.337.337 0 0 1 .104-.154.297.297 0 0 1 .202-.071c.124 0 .214.046.267.139.054.093.08.266.08.522v1.354c-.005.475-.008.743-.014.805a.265.265 0 0 1-.085.171.278.278 0 0 1-.207.082c-.185 0-.292-.092-.323-.278-.03-.186-.047-.5-.047-.94v-.428h-1.689v.374c0 .636.07 1.106.21 1.41.14.304.376.535.709.686.333.154.717.23 1.152.23.389 0 .717-.05.989-.152.27-.103.48-.251.63-.444.15-.193.25-.404.296-.63.045-.227.07-.583.07-1.066v-.976c0-.75-.12-1.258-.359-1.52-.241-.264-.593-.396-1.062-.396-.414 0-.752.156-1.014.47v-1.17h2.1v-1.092zm-4.355 0h-.994c-.423.551-1.043.917-1.86 1.093v.795h.167c.39 0 .641.027.755.082a.36.36 0 0 1 .207.244c.024.107.038.427.038.957v3.677h1.687v-6.848zM7.1 20.194h14.104V10.93H7.1v9.263zM23 7.224v14.553c0 .672-.547 1.223-1.213 1.223H6.212A1.223 1.223 0 0 1 5 21.777V7.225C5 6.552 5.545 6 6.212 6h2.113v1.297c-.384.184-.65.578-.65 1.035 0 .632.507 1.145 1.133 1.145.625 0 1.132-.513 1.132-1.145 0-.455-.264-.849-.646-1.032V6h2.701v1.297c-.385.184-.65.578-.65 1.035 0 .632.506 1.145 1.132 1.145.626 0 1.134-.513 1.134-1.145 0-.455-.264-.849-.647-1.032V6h2.593v1.297a1.145 1.145 0 0 0-.651 1.035c0 .632.507 1.145 1.133 1.145s1.132-.513 1.132-1.145c0-.455-.262-.849-.645-1.032V6h2.532v1.297c-.385.184-.65.578-.65 1.035 0 .632.506 1.145 1.132 1.145.626 0 1.134-.513 1.134-1.145 0-.455-.264-.849-.646-1.032V6h1.759C22.453 6 23 6.552 23 7.225z" fill="#CECECF"/>
    </g>
</svg>
