<svg width="28" height="28" viewBox="0 0 28 28" xmlns="http://www.w3.org/2000/svg" xmlns:xlink="http://www.w3.org/1999/xlink">
    <defs>
        <path id="fua44kmq1a" d="M0 0h28v28H0z"/>
    </defs>
    <g fill="none" fill-rule="evenodd">
        <mask id="zihtarpjrb" fill="#fff">
            <use xlink:href="#fua44kmq1a"/>
        </mask>
        <use fill-opacity=".01" fill="#0C0D13" xlink:href="#fua44kmq1a"/>
        <path d="M7.1 20.194h14.104V10.93H7.1v9.263zm5.917-.983c-.1 0-.132-.046-.1-.139l2.148-5.53c.013-.04 0-.06-.04-.06h-1.85c-.033 0-.05.016-.05.05v.454a.115.115 0 0 1-.034.085.115.115 0 0 1-.084.034h-.9a.115.115 0 0 1-.085-.034.115.115 0 0 1-.034-.085l.01-1.583c0-.033.011-.06.034-.084a.115.115 0 0 1 .084-.034h4.324c.033 0 .062.011.085.034a.115.115 0 0 1 .034.084v1c0 .04-.01.089-.03.148l-2.137 5.57c-.02.06-.066.09-.138.09h-1.237zM23 7.225v14.552c0 .672-.547 1.223-1.213 1.223H6.212A1.223 1.223 0 0 1 5 21.777V7.225C5 6.552 5.545 6 6.212 6h2.113v1.297c-.384.184-.65.578-.65 1.035 0 .632.507 1.145 1.133 1.145.625 0 1.132-.513 1.132-1.145 0-.455-.264-.849-.646-1.032V6h2.701v1.297c-.385.184-.65.578-.65 1.035 0 .632.506 1.145 1.132 1.145.626 0 1.134-.513 1.134-1.145 0-.455-.264-.849-.647-1.032V6h2.593v1.297a1.145 1.145 0 0 0-.651 1.035c0 .632.507 1.145 1.133 1.145s1.132-.513 1.132-1.145c0-.455-.262-.849-.645-1.032V6h2.532v1.297c-.385.184-.65.578-.65 1.035 0 .632.506 1.145 1.132 1.145.626 0 1.134-.513 1.134-1.145 0-.455-.264-.849-.646-1.032V6h1.759C22.453 6 23 6.552 23 7.225z" fill="#CECECF" mask="url(#zihtarpjrb)"/>
    </g>
</svg>
