<svg width="18" height="15" fill="#000000" xmlns="http://www.w3.org/2000/svg">
    <path d="M16.348 14.625c.363 0 .73-.167 1.098-.501.37-.334.554-.724.554-1.169V3.937c0-.28-.14-.632-.422-1.054-.281-.422-.703-.633-1.265-.633h-2.584L12.375 0h-6.75L4.271 2.25H1.688c-.282 0-.633.14-1.055.422C.21 2.953 0 3.369 0 3.92v9.018c0 .468.17.867.51 1.195.34.328.691.492 1.054.492h14.784zm0-1.125H1.582c-.07 0-.164-.056-.281-.167a.528.528 0 0 1-.176-.396V3.92c0-.176.082-.31.246-.404.164-.094.27-.141.317-.141h3.216l1.354-2.25h5.52l1.001 1.705.317.545h3.216c.2 0 .343.088.431.264.088.175.132.275.132.299v9.017c0 .106-.067.22-.202.343-.135.123-.243.19-.325.202zM9 11.812c.54 0 1.049-.102 1.53-.307.48-.205.899-.486 1.256-.844a3.952 3.952 0 0 0 1.152-2.786 3.952 3.952 0 0 0-1.151-2.786A3.952 3.952 0 0 0 9 3.938c-.54 0-1.049.102-1.53.307-.48.205-.899.486-1.256.844a3.952 3.952 0 0 0-1.152 2.786 3.952 3.952 0 0 0 1.151 2.786A3.952 3.952 0 0 0 9 11.813zm0-1.124a2.708 2.708 0 0 1-1.986-.827 2.708 2.708 0 0 1-.827-1.986c0-.773.276-1.436.827-1.986A2.708 2.708 0 0 1 9 5.062c.773 0 1.436.276 1.986.827.551.55.826 1.213.826 1.986 0 .773-.275 1.436-.826 1.986-.55.551-1.213.826-1.986.826z" fill="#000" fill-rule="nonzero"/>
</svg>
