<svg width="65" height="65" viewBox="0 0 65 65" fill="none" xmlns="http://www.w3.org/2000/svg">
<path fill-rule="evenodd" clip-rule="evenodd" d="M47.3364 28.1825C47.9986 23.916 44.5945 21.6237 39.983 20.1028L41.497 14.3239L37.7678 13.4442L36.2978 19.0726C35.3159 18.8401 34.3313 18.6191 33.3443 18.4094L34.8143 12.7235L31.1274 11.8421L29.6151 17.6194L27.2611 17.1203L22.1669 15.9073L21.188 19.663C21.188 19.663 23.9214 20.2635 23.8672 20.3041C24.9121 20.4226 25.6725 21.3073 25.5912 22.3071L23.8672 28.8846C23.9976 28.9117 24.1246 28.9523 24.2465 29.003L23.857 28.9049L21.4522 38.1248C21.2269 38.8015 20.4699 39.172 19.7603 38.9555C19.7603 39.0062 17.071 38.3261 17.071 38.3261L15.2419 42.3304L20.0432 43.4639L22.6698 44.1135L21.1457 49.95L24.8342 50.8314L26.3465 45.0541C27.339 45.3147 28.3178 45.5549 29.2764 45.7765L27.7861 51.5724L31.4729 52.4436L32.9971 46.6156C39.2988 47.7491 44.017 47.2974 46.012 41.872C47.6209 37.5056 45.929 34.9917 42.6182 33.3508C45.0348 32.8195 46.8215 31.3461 47.3364 28.1825ZM38.933 39.4461C37.7983 43.8107 30.0876 41.4491 27.5862 40.857L29.6151 33.1173C32.1148 33.7179 40.1185 34.8902 38.933 39.4461ZM40.0778 28.1216C39.0278 32.1259 32.6194 30.0739 30.5381 29.5833L32.3773 22.5744C34.4265 23.0566 41.1278 23.9769 40.0457 28.1216H40.0778Z" fill="white"/>
</svg>
