<svg width="28" height="28" viewBox="0 0 28 28" xmlns="http://www.w3.org/2000/svg">
    <g fill="none" fill-rule="evenodd">
        <path fill="#0C0D13" opacity=".01" d="M0 0h28v28H0z"/>
        <path d="M20.565 6C21.905 6 23 7.127 23 8.505v7.337c0 1.377-1.095 2.505-2.435 2.505h-2.539L14.244 23l.542-4.653H7.435C6.096 18.347 5 17.22 5 15.842V8.505C5 7.127 6.096 6 7.435 6h13.13zm-7.624 6.828H7.836v1.742h5.105v-1.742zm3.91 0h-2.823v1.742h2.822v-1.742zm3.05 0h-1.918v1.742h1.918v-1.742zm0-3.3h-8.72v1.74h8.72v-1.74zm-9.559 0H7.836v1.74h2.506v-1.74z" fill="#CECECF"/>
    </g>
</svg>
