<svg width="28" height="28" viewBox="0 0 28 28" xmlns="http://www.w3.org/2000/svg">
    <g fill="none" fill-rule="evenodd">
        <path fill="#0C0D13" opacity=".01" d="M0 0h28v28H0z"/>
        <path d="M8.825 16.205 5.83 14.498a9.001 9.001 0 0 0-1.106 4.08h3.456a5.66 5.66 0 0 1 .644-2.373zM14.27 9.69v3.411c.864.04 1.679.265 2.405.636l1.728-2.955A9.298 9.298 0 0 0 14.27 9.69zm-.344 8.23a.93.93 0 0 0-.867.98.924.924 0 0 0 .316.632.936.936 0 0 0 .675.227.94.94 0 0 0 .64-.312.909.909 0 0 0 .23-.665v-.003a.914.914 0 0 0-.316-.63.94.94 0 0 0-.675-.226l-.003-.002zm-2.123.807a2.149 2.149 0 0 0 .742 1.737 2.2 2.2 0 0 0 1.587.53v.003a2.203 2.203 0 0 0 1.504-.732 2.142 2.142 0 0 0 .536-1.564v-.004a2.152 2.152 0 0 0-.74-1.482 2.203 2.203 0 0 0-1.586-.53c-.056.004-.113.01-.17.019l-4.583-2.739-.773-.068.17.747 3.313 4.083zM14.27 7.796c1.843.043 3.574.526 5.094 1.345l.401-.688.468.268-.401.687c.76.458 1.46 1.003 2.087 1.622a11.223 11.223 0 0 1 1.641 2.058l.697-.396.272.461-.697.398a10.893 10.893 0 0 1 1.362 5.027H26v.533h-2.725v-.533h.66a9.631 9.631 0 0 0-1.194-4.407l-.57.327a9.046 9.046 0 0 1 1.104 4.08h-3.458a5.66 5.66 0 0 0-.643-2.373l2.994-1.707-.271-.462.574-.326a9.943 9.943 0 0 0-3.269-3.226l-.33.566a9.296 9.296 0 0 1 1.689 1.318c.508.503.956 1.061 1.337 1.667l-2.995 1.708a5.764 5.764 0 0 0-1.76-1.739l1.728-2.954-.468-.266.331-.568a10.003 10.003 0 0 0-4.464-1.178v.653h-.54v-.653a9.99 9.99 0 0 0-4.464 1.178l.33.567a9.306 9.306 0 0 1 4.133-1.092v3.411c-.864.04-1.679.265-2.404.636l-1.73-2.954-.467.266-.331-.566a9.936 9.936 0 0 0-3.268 3.225l.572.326c.38-.606.83-1.164 1.337-1.667a9.338 9.338 0 0 1 1.689-1.318l1.73 2.954c-.159.1-.312.21-.46.324l-1.188-.712-1.347-.116.293 1.304.607.748-2.66-1.516-.27.462-.574-.327a9.661 9.661 0 0 0-1.194 4.407h.661v.533H2v-.533h.805a10.88 10.88 0 0 1 1.363-5.027l-.697-.398.271-.461.696.397a11.147 11.147 0 0 1 3.729-3.681l-.403-.687.47-.268.4.688a11.272 11.272 0 0 1 5.095-1.345V7h.54v.796z" fill="#CECECF"/>
    </g>
</svg>
