<svg width="39" height="33" viewBox="0 0 39 33" fill="none" xmlns="http://www.w3.org/2000/svg">
<g clip-path="url(#clip0_130_606)">
<path d="M29.1979 10.0478C28.5052 9.65373 27.6146 9.65373 26.8229 10.0478L21.2812 13.2985L17.5208 15.3672L12.0781 18.6179C11.3854 19.0119 10.4948 19.0119 9.70312 18.6179L5.44792 16.0567C4.75521 15.6627 4.26042 14.8746 4.26042 13.9881V9.06268C4.26042 8.27462 4.65625 7.48656 5.44792 6.99403L9.70312 4.53134C10.3958 4.13731 11.2865 4.13731 12.0781 4.53134L16.3333 7.09253C17.026 7.48656 17.5208 8.27462 17.5208 9.16119V12.4119L21.2812 10.2448V6.89552C21.2812 6.10746 20.8854 5.3194 20.0937 4.82686L12.1771 0.197012C11.4844 -0.197018 10.5937 -0.197018 9.80208 0.197012L1.6875 4.92537C0.895833 5.3194 0.5 6.10746 0.5 6.89552V16.1552C0.5 16.9433 0.895833 17.7313 1.6875 18.2239L9.70312 22.8537C10.3958 23.2478 11.2865 23.2478 12.0781 22.8537L17.5208 19.7015L21.2812 17.5343L26.724 14.3821C27.4167 13.9881 28.3073 13.9881 29.099 14.3821L33.3542 16.8448C34.0469 17.2388 34.5417 18.0269 34.5417 18.9134V23.8388C34.5417 24.6269 34.1458 25.4149 33.3542 25.9075L29.1979 28.3701C28.5052 28.7642 27.6146 28.7642 26.8229 28.3701L22.5677 25.9075C21.875 25.5134 21.3802 24.7254 21.3802 23.8388V20.6866L17.6198 22.8537V26.1045C17.6198 26.8925 18.0156 27.6806 18.8073 28.1731L26.8229 32.803C27.5156 33.197 28.4062 33.197 29.1979 32.803L37.2135 28.1731C37.9062 27.7791 38.401 26.991 38.401 26.1045V16.7463C38.401 15.9582 38.0052 15.1701 37.2135 14.6776L29.1979 10.0478Z" fill="white"/>
</g>
<defs>
<clipPath id="clip0_130_606">
<rect width="38" height="33" fill="white" transform="translate(0.5)"/>
</clipPath>
</defs>
</svg>
