<svg width="28" height="28" viewBox="0 0 28 28" xmlns="http://www.w3.org/2000/svg">
    <g fill="none" fill-rule="evenodd">
        <path fill="#0C0D13" opacity=".01" d="M0 0h28v28H0z"/>
        <path d="M22.366 6.811c-.386.036-.895.165-1.437.378-.542.215-1.003.47-1.311.71-.197.154-.329.23-.325.238.003.008.148-.026.395-.048.385-.036.894-.165 1.436-.38.543-.215 1.003-.47 1.312-.709.197-.154.328-.23.325-.238-.003-.006-.148.026-.395.05zm-.153 1.983-.24-.644c-.082.042-.166.08-.251.12l.24.645c.086-.04.17-.08.251-.121zm-1.383-.185.24.643c.074-.023.15-.047.225-.073l-.24-.644-.225.074zm2.09-.246-.234-.625c-.055.038-.115.076-.176.116l.236.631c.062-.04.12-.081.174-.122zm.02-.814.234.627c.059-.04.092-.061.09-.065l.006-.034-.232-.615c-.03.029-.063.058-.098.087zm-2.939 1.908-.231-.621-.017.001a2.083 2.083 0 0 1-.211.011l.23.613.023.024c.002.004.077-.01.206-.028zm.077-.663.235.629c.07-.01.147-.022.224-.039l-.236-.635a4.41 4.41 0 0 1-.223.045zm.59-2.306c.604-.24 1.183-.385 1.632-.427.586-.053 1.015.086 1.144.431l.502 1.348.008.024c.11.34-.117.729-.576 1.084-.36.28-.885.572-1.49.812-.604.238-1.183.384-1.631.425-.553.05-.966-.07-1.118-.373l-.002.001-.01-.023c-.003-.011-.008-.023-.013-.035a.419.419 0 0 1-.012-.036l-.477-1.277a1.079 1.079 0 0 1-.015-.036c-.13-.343.099-.742.569-1.108.36-.28.885-.572 1.489-.81zm-3.957 5.275c.185.147.307.22.303.227-.003.007-.139-.026-.373-.05-.362-.04-.839-.169-1.347-.379-.509-.211-.94-.458-1.227-.688-.186-.148-.307-.221-.304-.228.003-.008.14.025.371.05.364.04.842.17 1.35.38.508.21.94.457 1.227.688zm-1.342 1.268.237-.604a7.322 7.322 0 0 1-.249-.084l-.236.604c.084.031.167.058.248.084zm-.839-1.044-.234.603c.065.034.13.067.2.099l.235-.604-.201-.098zm1.596 1.212.229-.584a4.119 4.119 0 0 1-.194-.038l-.233.593c.07.013.137.022.198.03zm.521-.548-.229.589c.065.01.102.017.104.014l.022-.019.226-.577a2.091 2.091 0 0 1-.123-.007zm-3.218-.625c-.1-.076-.16-.113-.158-.119l-.002-.032.221-.575c.048.045.099.09.154.134l.013.009-.228.583zm.467-.41-.23.591c.056.04.115.082.178.124l.233-.597a3.61 3.61 0 0 1-.181-.117zm1.844-1.201c-.565-.234-1.112-.38-1.533-.424-.552-.06-.958.064-1.082.39-.005.009-.009.02-.013.031l-.467 1.199a.817.817 0 0 0-.014.032l-.011.033-.01.022.003.002c-.084.31.126.667.538.996.336.269.826.551 1.393.786.566.235 1.11.38 1.532.426.542.057.94-.06 1.075-.368l.01-.022.492-1.263c.125-.323-.082-.702-.521-1.053-.335-.27-.826-.553-1.392-.787zm4.672 1.172c-.23.192-.5.5-.754.875-.255.374-.441.74-.538 1.029-.062.184-.114.29-.108.293.005.003.083-.082.23-.205.23-.192.499-.498.754-.874.256-.375.443-.741.539-1.029.062-.184.112-.29.108-.294-.005-.004-.084.082-.23.205zm.727 1.327-.418-.303-.112.187.42.302c.04-.063.075-.124.11-.186zm-.956.492.42.302.114-.144-.42-.304a3.52 3.52 0 0 1-.114.146zm1.226-1.078L21 12.034c-.02.05-.04.1-.065.151l.414.298a4.45 4.45 0 0 0 .059-.155zm-.326-.526.41.295a.338.338 0 0 0 .03-.081l-.011-.024-.4-.289-.03.1zm-1.072 2.51-.405-.295-.01.009c-.044.037-.088.07-.13.1l.4.289.025.004c.003.002.044-.04.12-.108zm-.228-.458.41.298c.042-.039.084-.08.128-.124l-.415-.299a2.94 2.94 0 0 1-.123.125zm-.583-1.723a5.01 5.01 0 0 0-.609 1.17c-.147.44-.126.793.1.956l.024.015.833.601a.277.277 0 0 0 .023.017.187.187 0 0 0 .023.017l.015.01h.001c.222.124.534.02.864-.258a4.91 4.91 0 0 0 .86-.99 5.05 5.05 0 0 0 .608-1.17c.144-.43.128-.776-.083-.944l-.015-.011-.88-.634c-.225-.163-.555-.063-.904.23-.269.224-.577.572-.86.99zm-4.588-4.375c-.011-.375-.1-.877-.264-1.413-.167-.539-.372-1-.573-1.313-.13-.202-.192-.333-.198-.33-.007.002.014.146.021.387.01.375.099.876.264 1.413.166.539.372 1 .572 1.313.13.201.192.331.2.33.006-.003-.015-.147-.022-.387zm-1.803-.262.601-.196a5.944 5.944 0 0 1-.095-.25l-.602.196c.03.086.064.17.096.25zm.249-1.329-.602.195c.016.073.034.147.054.223l.602-.197a9.9 9.9 0 0 1-.054-.22zm.105 2.04.583-.19a5.829 5.829 0 0 1-.095-.178l-.591.192c.035.063.068.121.103.176zm.742.066-.587.19c.033.06.051.093.056.092l.029.006.574-.186a2.137 2.137 0 0 1-.072-.102zM12.33 5.313l.581-.19v-.015a2.305 2.305 0 0 1 .002-.205l-.574.185-.021.022c-.006.003.003.075.012.203zm.601.11-.587.192c.005.07.012.145.022.221l.594-.193a3.796 3.796 0 0 1-.029-.22zm2.074.705c.184.6.283 1.17.296 1.607.015.572-.137.979-.46 1.084l-1.26.41-.021.007c-.317.088-.659-.155-.958-.621-.234-.366-.472-.89-.656-1.49-.184-.6-.283-1.17-.295-1.607-.016-.539.12-.93.405-1.063l-.001-.002.023-.006a.2.2 0 0 1 .032-.013l.032-.01 1.195-.389.033-.01c.322-.106.673.136.979.613.235.366.472.89.656 1.49zM4 24c2.854-6.142 7.259-11.906 14.752-9.11l-.001 1.291c-.7.659-2.092 1.006-5.33.433l-.001.353c4.028 1.132 6.653.639 9.399-3.403l2.181.092-4.089 6.449-8.903.431-.905 3.328L4 24z" fill="#CECECF"/>
    </g>
</svg>
