<svg width="28" height="28" viewBox="0 0 28 28" xmlns="http://www.w3.org/2000/svg">
    <g fill="none" fill-rule="evenodd">
        <path fill="#0C0D13" opacity=".01" d="M0 0h28v28H0z"/>
        <path d="M21.39 11.658c.969 0 1.758.77 1.758 1.717v5.77l.794 2.357.002.008c.152.472-.013.967-.42 1.262a1.186 1.186 0 0 1-1.355.028l-1.535-.997h-5.963c-.97 0-1.758-.77-1.758-1.716v-2.76h.416c1.615 0 2.93-1.283 2.93-2.86v-2.809zm-3.33 2.517a.681.681 0 0 0-.638.428l-1.613 4.136a.568.568 0 0 0 .339.738.586.586 0 0 0 .756-.331l.258-.662h1.784l.255.66a.59.59 0 0 0 .755.334.568.568 0 0 0 .341-.737l-1.599-4.137-.006-.016a.678.678 0 0 0-.632-.413zM13.329 6c.97 0 1.758.77 1.758 1.716v6.75c0 .947-.789 1.717-1.758 1.717H7.365l-1.535.997c-.201.133-.43.2-.657.2-.244 0-.488-.077-.698-.229a1.116 1.116 0 0 1-.42-1.26l.003-.008.794-2.357v-5.81C4.852 6.77 5.641 6 6.61 6zm4.73 10.188.445 1.152h-.895l.45-1.152zM9.836 8.48c-1.507 0-2.733 1.197-2.733 2.669 0 1.471 1.226 2.668 2.733 2.668.55 0 1.063-.16 1.493-.435l.256.25a.592.592 0 0 0 .829 0 .563.563 0 0 0 0-.808l-.264-.258c.265-.411.42-.897.42-1.417 0-1.472-1.227-2.669-2.734-2.669zm0 1.144c.86 0 1.561.684 1.561 1.525 0 .202-.04.394-.114.57l-.243-.237a.596.596 0 0 0-.828 0 .563.563 0 0 0 0 .81l.256.25a1.584 1.584 0 0 1-.632.131c-.861 0-1.562-.684-1.562-1.524s.7-1.525 1.562-1.525z" fill="#CECECF"/>
    </g>
</svg>
