<svg width="28" height="28" viewBox="0 0 28 28" xmlns="http://www.w3.org/2000/svg" xmlns:xlink="http://www.w3.org/1999/xlink">
    <defs>
        <path id="4ticc5nnxa" d="M0 0h28v28H0z"/>
    </defs>
    <g fill="none" fill-rule="evenodd">
        <mask id="79b1zcgk0b" fill="#fff">
            <use xlink:href="#4ticc5nnxa"/>
        </mask>
        <use fill-opacity=".01" fill="#0C0D13" xlink:href="#4ticc5nnxa"/>
        <path d="M14.968 5C19.956 5 24 9.03 24 14s-4.044 9-9.032 9a9.02 9.02 0 0 1-6.387-2.636l.912-.91a7.731 7.731 0 0 0 5.475 2.26c4.275 0 7.742-3.454 7.742-7.714s-3.467-7.714-7.742-7.714c-4.27 0-7.733 3.445-7.742 7.698l-1.29-.002C5.946 9.02 9.986 5 14.968 5zm0 1.929c3.913 0 7.097 3.172 7.097 7.071 0 3.9-3.184 7.071-7.097 7.071a7.107 7.107 0 0 1-6.745-4.873l2.28-2.84H7.902c.327-3.6 3.371-6.43 7.067-6.43zM9.16 14l-2.58 3.214L4 14h5.161zm6.452-5.786h-1.29v4.674a1.283 1.283 0 0 0 .645 2.398c.155 0 .302-.029.44-.079l2.11 1.765.83-.985-2.11-1.765a1.283 1.283 0 0 0-.625-1.335V8.215z" fill="#CECECF" mask="url(#79b1zcgk0b)"/>
    </g>
</svg>
