<svg width="28" height="28" viewBox="0 0 28 28" xmlns="http://www.w3.org/2000/svg">
    <g fill="none" fill-rule="evenodd">
        <path fill="#0C0D13" opacity=".01" d="M0 0h28v28H0z"/>
        <path d="M17.177 9.471a1.11 1.11 0 0 0-1.56.112l-5.233 6.037a1.11 1.11 0 0 0 .112 1.56c.46.4 1.162.35 1.56-.11l5.232-6.038a1.11 1.11 0 0 0-.11-1.56zm3.585-4.235a4.04 4.04 0 0 0-2.945-.976 4.038 4.038 0 0 0-2.777 1.385L13.051 7.94a4.047 4.047 0 0 0-.977 2.945 4.08 4.08 0 0 0 .407 1.508l1.787-2.063c.05-.345.193-.678.435-.958l1.99-2.295a1.858 1.858 0 0 1 1.28-.638 1.863 1.863 0 0 1 1.996 1.73 1.87 1.87 0 0 1-.449 1.36l-1.989 2.294a1.862 1.862 0 0 1-.716.508l-1.864 2.15a4.06 4.06 0 0 0 1.455.16 4.043 4.043 0 0 0 2.777-1.387l1.99-2.294a4.045 4.045 0 0 0 .976-2.947 4.04 4.04 0 0 0-1.387-2.776zm-6.04 9.512c.206.45.328.93.363 1.417a4.046 4.046 0 0 1-.977 2.947l-1.989 2.294a4.039 4.039 0 0 1-2.777 1.386 4.044 4.044 0 0 1-4.332-3.754 4.044 4.044 0 0 1 .977-2.945l1.988-2.295a4.048 4.048 0 0 1 2.778-1.387 4.105 4.105 0 0 1 1.55.187l-1.789 2.064a1.848 1.848 0 0 0-.886.567L7.64 17.524a1.867 1.867 0 0 0-.449 1.36 1.862 1.862 0 0 0 1.996 1.728c.48-.034.945-.25 1.281-.638l1.99-2.294c.2-.232.333-.5.401-.782l1.863-2.15z" fill="#CECECF"/>
    </g>
</svg>
