<svg width="28" height="28" viewBox="0 0 28 28" xmlns="http://www.w3.org/2000/svg">
    <g fill="none" fill-rule="evenodd">
        <path fill="#0C0D13" opacity=".01" d="M0 0h28v28H0z"/>
        <path d="M20.908 4.276a1.316 1.316 0 0 1 1.362-.153c.446.207.73.646.73 1.127v10c0 3.919-3.23 7.17-8.64 8.7a1.327 1.327 0 0 1-.719 0C8.231 22.42 5 19.169 5 15.25v-10c0-.48.285-.92.731-1.127a1.314 1.314 0 0 1 1.361.154c1.604 1.254 4.496 1.255 6.102-.001a1.315 1.315 0 0 1 1.612 0c1.604 1.255 4.496 1.256 6.102 0zM14 9c-1.418 0-2.571 1.122-2.571 2.5v1.25c-.71 0-1.286.56-1.286 1.25v2.5c0 .69.576 1.25 1.286 1.25h5.143c.71 0 1.285-.56 1.285-1.25V14c0-.69-.575-1.25-1.285-1.25V11.5c0-1.378-1.154-2.5-2.572-2.5zm0 5.625c.355 0 .643.28.643.625a.634.634 0 0 1-.643.625.634.634 0 0 1-.643-.625c0-.345.288-.625.643-.625zm0-4.375c.709 0 1.286.56 1.286 1.25v1.25h-2.571V11.5c0-.69.576-1.25 1.285-1.25z" fill="#CECECF"/>
    </g>
</svg>
