<svg width="28" height="28" viewBox="0 0 28 28" xmlns="http://www.w3.org/2000/svg" xmlns:xlink="http://www.w3.org/1999/xlink">
    <defs>
        <path id="qnjf70jaja" d="M0 0h28v28H0z"/>
    </defs>
    <g fill="none" fill-rule="evenodd">
        <mask id="sados74rcb" fill="#fff">
            <use xlink:href="#qnjf70jaja"/>
        </mask>
        <use fill-opacity=".01" fill="#0C0D13" xlink:href="#qnjf70jaja"/>
        <path d="m22.833 23.683.053.032c.161.099.342.16.528.18l.141.008h.886c.309 0 .559.25.559.56v2.383h-1.007v-1.05a.127.127 0 1 0-.254 0v1.05h-2.218l-.86-.03V25.78a.104.104 0 0 0-.207 0v1.036h-.901l-.028-1.573v-.78c0-.31.25-.56.56-.56h.885c.236 0 .468-.065.67-.188l.052-.032h1.14zm-7.763 0 .053.032c.161.099.342.16.529.18l.14.008h.886c.31 0 .56.25.56.56v2.383H16.23v-1.05a.127.127 0 1 0-.253 0v1.05h-2.218l-.86-.03V25.78a.104.104 0 1 0-.208 0v1.036h-.9l-.028-1.573v-.78c0-.31.25-.56.559-.56h.885c.237 0 .468-.065.67-.188l.053-.032h1.14zm-7.762 0 .053.032c.161.099.341.16.528.18l.141.008h.886c.309 0 .559.25.559.56v2.383H8.468v-1.05a.127.127 0 1 0-.254 0v1.05H5.996l-.86-.03V25.78a.104.104 0 0 0-.207 0v1.036h-.901L4 25.243v-.78c0-.31.25-.56.56-.56h.885c.236 0 .468-.065.67-.188l.052-.032h1.14zm15.006-3.237c.7 0 1.269.631 1.269 1.407s-.57 1.408-1.269 1.408c-.7 0-1.268-.632-1.268-1.408 0-.776.569-1.407 1.268-1.407zm-7.762 0c.699 0 1.268.631 1.268 1.407s-.569 1.408-1.268 1.408c-.7 0-1.269-.632-1.269-1.408 0-.776.57-1.407 1.269-1.407zm-7.763 0c.7 0 1.268.631 1.268 1.407s-.569 1.408-1.268 1.408c-.7 0-1.268-.632-1.268-1.408 0-.776.569-1.407 1.268-1.407zm11.085-3.515 3.235 3.144-.361.35-3.235-3.143.361-.35zm-6.635 0 .361.35-3.235 3.145-.36-.351 3.234-3.144zm3.573 1.802v.997h-.51v-.997h.51zm2.928-6.412a3.71 3.71 0 0 1 .384 3.11 3.774 3.774 0 0 1-2.04 2.273l-.074.03.096.432-.92-.6.587-.901.119.535a3.234 3.234 0 0 0 1.714-1.932 3.18 3.18 0 0 0-.277-2.579l.41-.368zm-6.487.84.498.951-.523-.164a3.233 3.233 0 0 0 2.262 3.415c.33.103.665.152.995.152l.118.534a3.853 3.853 0 0 1-1.279-.175c-1.795-.565-2.872-2.322-2.622-4.102l-.002.01-.435-.137.988-.484zm3.251-1.316c1.373 0 2.486 1.096 2.486 2.45 0 1.352-1.113 2.449-2.486 2.449-1.372 0-2.485-1.097-2.485-2.45 0-1.353 1.113-2.45 2.485-2.45zm1.104-4.198.108.065c.36.218.765.347 1.182.38l.21.008h1.852c.634 0 1.147.514 1.147 1.147v4.896H19.6c-.131-2.589-2.361-4.648-5.092-4.648-2.71 0-4.926 2.027-5.09 4.586h-.62l-.057-3.23V9.247c0-.633.513-1.147 1.147-1.147h1.852c.49 0 .972-.134 1.392-.388l.108-.065h2.368zm.038 3.053c.386.121.738.298 1.051.518l.071.053.39-.35-.068 1.084-1.085-.05.353-.316a3.302 3.302 0 0 0-4.733 1.075l-.527-.166c.842-1.594 2.753-2.412 4.548-1.848zM14.531 1c1.452 0 2.633 1.296 2.633 2.89 0 1.593-1.18 2.89-2.633 2.89-1.452 0-2.633-1.297-2.633-2.89 0-1.594 1.181-2.89 2.633-2.89z" fill="#D5D2CF" mask="url(#sados74rcb)"/>
    </g>
</svg>
