<svg width="41" height="42" viewBox="0 0 41 42" fill="none" xmlns="http://www.w3.org/2000/svg">
<g clip-path="url(#clip0_130_601)">
<path d="M14.35 10.75H7.78999C10.865 6.855 15.58 4.6 20.5 4.6C27.47 4.6 33.62 8.905 35.875 15.465L39.77 14.03C36.9 6.035 29.11 0.5 20.5 0.5C15.17 0.5 10.045 2.755 6.14999 6.445V2.55H2.04999V14.85H14.35V10.75Z" fill="url(#paint0_linear_130_601)"/>
<path d="M26.65 31.25H33.21C30.135 35.145 25.42 37.4 20.5 37.4C13.53 37.4 7.37998 33.095 5.12498 26.535L1.22998 27.97C4.09998 35.965 11.89 41.5 20.5 41.5C26.035 41.5 31.16 39.245 34.85 35.555V39.45H38.95V27.15H26.65V31.25Z" fill="url(#paint1_linear_130_601)"/>
</g>
<defs>
<linearGradient id="paint0_linear_130_601" x1="3.78203" y1="0.5" x2="40.0254" y2="4.81216" gradientUnits="userSpaceOnUse">
<stop offset="0.0189512" stop-color="#0064FB"/>
<stop offset="1" stop-color="#1ECDF8"/>
</linearGradient>
<linearGradient id="paint1_linear_130_601" x1="2.96202" y1="26.535" x2="39.2054" y2="30.8471" gradientUnits="userSpaceOnUse">
<stop offset="0.0189512" stop-color="#0064FB"/>
<stop offset="1" stop-color="#1ECDF8"/>
</linearGradient>
<clipPath id="clip0_130_601">
<rect width="41" height="41" fill="white" transform="translate(0 0.5)"/>
</clipPath>
</defs>
</svg>
