<svg width="28" height="28" viewBox="0 0 28 28" xmlns="http://www.w3.org/2000/svg">
    <g fill="none" fill-rule="evenodd">
        <path fill="#0C0D13" opacity=".01" d="M0 0h28v28H0z"/>
        <path d="M19.25 21.808v1.519h.679V24h-2.036l-.001-.001-8.82.001v-.672l.678-.001v-1.519h9.5zM20.607 5c0 .455-.014.904-.042 1.345H24c0 3.73-2.54 6.914-6.115 8.169-.789.986-1.709 1.637-2.7 1.845.109 2.364 1.67 4.352 3.82 5.113l.245.336h-9.5l.242-.336c2.152-.76 3.714-2.748 3.823-5.113-.991-.208-1.911-.859-2.701-1.846C7.54 13.26 5 10.075 5 6.345h3.435c-.028-.441-.042-.89-.042-1.345h12.214zM8.522 7.353H6.09c.341 2.379 1.873 4.42 4.03 5.61-.79-1.52-1.356-3.454-1.598-5.61zm14.388 0h-2.432c-.242 2.156-.807 4.09-1.598 5.611 2.157-1.19 3.689-3.232 4.03-5.61z" fill="#D6D2CF"/>
    </g>
</svg>
