<svg width="28" height="28" viewBox="0 0 28 28" xmlns="http://www.w3.org/2000/svg">
    <g fill="none" fill-rule="evenodd">
        <path fill="#0C0D13" opacity=".01" d="M0 0h28v28H0z"/>
        <path d="M19.326 7c-1.089 3.637-1.012 7.274 0 10.912l-8.66-2.392a15.821 15.821 0 0 0 1.083 4.58c-.766.63-1.66.87-2.623.9-.99-1.915-1.502-4.042-1.607-6.349l-.983-.271v-3.153c4.263-1.41 8.527-2.819 12.79-4.227zm-9.3 8.708a.373.373 0 0 0-.362.385c.016.681.1 1.299.23 1.876.126.58.295 1.112.479 1.626.07.197.282.297.475.227a.378.378 0 0 0 .223-.484 12.498 12.498 0 0 1-.453-1.53 9.061 9.061 0 0 1-.213-1.732.372.372 0 0 0-.38-.368zm11.204-.832 1.977.674c.486.166.749.7.585 1.193a.925.925 0 0 1-1.175.595l-1.977-.674a.947.947 0 0 1-.585-1.194.926.926 0 0 1 1.175-.594zm-4.57-5.828c-.31 1.18-.46 2.365-.458 3.55.002 1.183.156 2.366.458 3.546a.462.462 0 0 0 .565.338.472.472 0 0 0 .334-.574 13.379 13.379 0 0 1-.43-3.31c-.001-1.1.14-2.203.43-3.31a.473.473 0 0 0-.331-.576.464.464 0 0 0-.568.336zM5.48 10.854c.217 0 .393.18.393.4v3.204c0 .22-.176.4-.393.4H4.395a.399.399 0 0 1-.395-.4v-3.204c0-.22.178-.4.395-.4H5.48zm17.59.547a.94.94 0 0 1 .931.945.939.939 0 0 1-.932.947h-1.945a.938.938 0 0 1-.93-.947c0-.521.416-.945.93-.945h1.945zm.723-3.443a.947.947 0 0 1-.585 1.193l-1.977.674a.925.925 0 0 1-1.175-.594.948.948 0 0 1 .585-1.194l1.977-.674a.926.926 0 0 1 1.175.595z" fill="#CECECF"/>
    </g>
</svg>
