<svg width="28" height="28" viewBox="0 0 28 28" xmlns="http://www.w3.org/2000/svg">
    <g fill="none" fill-rule="evenodd">
        <path fill="#0C0D13" opacity=".01" d="M0 0h28v28H0z"/>
        <path d="M13.705 12.635c.198.04.4.07.605.082l-.194.436-.348-.176-.265-.1.202-.242zm3.231-5.663c.014-.131.022-.26.027-.39a4.06 4.06 0 0 0-.09-.968c.377.42.652.944.777 1.53-.24-.04-.481-.097-.714-.172zm-1.311-.602.62-1.094c.153.39.227.829.214 1.293-.002.074-.006.15-.011.224a6.43 6.43 0 0 1-.794-.405l-.03-.018zm-1.137-.86a2.995 2.995 0 0 1 1.3-.462l-.59 1.04a7.038 7.038 0 0 1-.71-.577zm-.746-.795a2.98 2.98 0 0 1 1.41-.077 3.354 3.354 0 0 0-1.042.499 7.777 7.777 0 0 1-.368-.422zm-.031.75a4.48 4.48 0 0 0-.61.714l-.818-.504a3.227 3.227 0 0 1 .964-.761c.142.187.297.371.464.55zm1.229 1.079-.324.573-1.08-.669c.16-.224.337-.432.538-.614.267.252.558.492.866.71zm1.426.784a4.562 4.562 0 0 1-.224.732l-1.093-.676.318-.56.037.023c.307.185.63.346.962.48zm1.355.359a3.426 3.426 0 0 1-.166 1.246l-.975-.604a5.23 5.23 0 0 0 .266-.833c.286.088.58.153.875.19zm-5.54.816a4.58 4.58 0 0 0-.069.457c-.029.302-.025.6.011.886a3.353 3.353 0 0 1-.614-1.577c.228.062.453.14.672.234zm1.24.72-.66 1.165a3.248 3.248 0 0 1-.147-1.376c.007-.092.02-.186.037-.28.228.122.449.26.66.41l.11.08zm1.024.917-.016.009c-.337.185-.717.31-1.148.356l.544-.96c.22.188.428.387.62.595zm.74.942a2.992 2.992 0 0 1-1.533-.1c.368-.07.703-.197 1.01-.365.044-.024.087-.05.13-.075.141.177.274.357.393.54zm.026-.835c.323-.26.604-.573.85-.912l.965.595a3.106 3.106 0 0 1-1.333 1.003 7.221 7.221 0 0 0-.482-.686zm-1.124-1.163.406-.719 1.13.7a4.168 4.168 0 0 1-.745.787 8.09 8.09 0 0 0-.79-.768zm-1.311-.878c.073-.241.17-.482.29-.721l.993.613-.379.669a6.99 6.99 0 0 0-.904-.56zm-1.288-.487c.017-.378.093-.74.22-1.073l.924.57c-.13.256-.236.514-.319.774a5.612 5.612 0 0 0-.825-.27zM14.292 25 22 24.603l-5.595-5.586-.826-5.47-.489-.846a4.526 4.526 0 0 0 2.79-1.399 4.971 4.971 0 0 0 1.36-3.438c0-1.343-.52-2.559-1.36-3.44A4.503 4.503 0 0 0 14.607 3c-1.28 0-2.437.544-3.277 1.425a4.972 4.972 0 0 0-1.356 3.439c0 1.25.45 2.39 1.187 3.253l-.193.803.014.007-.008-.002-.771-.39-.99-.556-.988 1.35.514.678-.966.146-.496 1.453.943.687-1.078.209-.66 1.624.982.63-.076.174-.887.105-.5 1.076.52.6.337.325 1.752 1.648-.267.333-1.515-.816-.543 1.237c.878.972 1.924 1.534 3.228 1.473l.37-.948.078.075 3.033.801 1.3 1.161z" fill="#CECECF"/>
    </g>
</svg>
