<svg width="54" height="54" viewBox="0 0 54 54" fill="none" xmlns="http://www.w3.org/2000/svg">
<path fill-rule="evenodd" clip-rule="evenodd" d="M27 31.5C27 29.7098 27.7112 27.9929 28.977 26.727C30.2429 25.4612 31.9598 24.75 33.75 24.75H42.75C43.9435 24.75 45.0881 25.2241 45.932 26.068C46.7759 26.9119 47.25 28.0565 47.25 29.25V33.75C47.25 34.9435 46.7759 36.0881 45.932 36.932C45.0881 37.7759 43.9435 38.25 42.75 38.25H33.75C31.9598 38.25 30.2429 37.5388 28.977 36.273C27.7112 35.0071 27 33.2902 27 31.5ZM33.75 29.25C33.1533 29.25 32.581 29.4871 32.159 29.909C31.7371 30.331 31.5 30.9033 31.5 31.5C31.5 32.0967 31.7371 32.669 32.159 33.091C32.581 33.5129 33.1533 33.75 33.75 33.75H42.75V29.25H33.75Z" fill="url(#paint0_linear_130_610)"/>
<path fill-rule="evenodd" clip-rule="evenodd" d="M27.675 7.42498C28.0956 7.01272 28.6611 6.7818 29.25 6.7818C29.8389 6.7818 30.4044 7.01272 30.825 7.42498L36.9 13.5H30.6L27.675 10.575C27.2627 10.1544 27.0318 9.58892 27.0318 8.99998C27.0318 8.41103 27.2627 7.84557 27.675 7.42498ZM27.9 13.5L21.825 7.42498C21.4044 7.01272 20.8389 6.7818 20.25 6.7818C19.6611 6.7818 19.0956 7.01272 18.675 7.42498L12.6 13.5H27.9ZM10.35 15.75C9.31826 15.9604 8.39296 16.5259 7.73518 17.3481C7.07739 18.1704 6.72877 19.1972 6.75 20.25V42.75C6.75 45.225 8.775 47.25 11.25 47.25H38.25C39.4435 47.25 40.5881 46.7759 41.432 45.932C42.2759 45.088 42.75 43.9435 42.75 42.75H33.75C30.7663 42.75 27.9048 41.5647 25.795 39.4549C23.6853 37.3451 22.5 34.4837 22.5 31.5C22.5 28.5163 23.6853 25.6548 25.795 23.545C27.9048 21.4352 30.7663 20.25 33.75 20.25H42.75C42.7823 19.2281 42.4657 18.2256 41.8522 17.4077C41.2388 16.5897 40.3651 16.0051 39.375 15.75H10.125H10.35Z" fill="url(#paint1_linear_130_610)"/>
<defs>
<linearGradient id="paint0_linear_130_610" x1="27.9298" y1="24.75" x2="47.5641" y2="26.1402" gradientUnits="userSpaceOnUse">
<stop offset="0.0189512" stop-color="#0064FB"/>
<stop offset="1" stop-color="#1ECDF8"/>
</linearGradient>
<linearGradient id="paint1_linear_130_610" x1="8.40229" y1="6.7818" x2="43.424" y2="8.25254" gradientUnits="userSpaceOnUse">
<stop offset="0.0189512" stop-color="#0064FB"/>
<stop offset="1" stop-color="#1ECDF8"/>
</linearGradient>
</defs>
</svg>
