<svg width="55" height="55" viewBox="0 0 55 55" fill="none" xmlns="http://www.w3.org/2000/svg">
<path fill-rule="evenodd" clip-rule="evenodd" d="M27.2509 31.7182C27.2509 29.928 27.9621 28.2111 29.2279 26.9452C30.4938 25.6794 32.2107 24.9682 34.0009 24.9682H43.0009C44.1944 24.9682 45.339 25.4423 46.1829 26.2862C47.0268 27.1301 47.5009 28.2747 47.5009 29.4682V33.9682C47.5009 35.1617 47.0268 36.3063 46.1829 37.1502C45.339 37.9941 44.1944 38.4682 43.0009 38.4682H34.0009C32.2107 38.4682 30.4938 37.757 29.2279 36.4912C27.9621 35.2253 27.2509 33.5084 27.2509 31.7182ZM34.0009 29.4682C33.4042 29.4682 32.8319 29.7053 32.4099 30.1272C31.988 30.5492 31.7509 31.1215 31.7509 31.7182C31.7509 32.3149 31.988 32.8872 32.4099 33.3092C32.8319 33.7311 33.4042 33.9682 34.0009 33.9682H43.0009V29.4682H34.0009Z" fill="white"/>
<path fill-rule="evenodd" clip-rule="evenodd" d="M27.9259 7.64318C28.3465 7.23092 28.912 7 29.5009 7C30.0899 7 30.6553 7.23092 31.0759 7.64318L37.1509 13.7182H30.8509L27.9259 10.7932C27.5137 10.3726 27.2827 9.80712 27.2827 9.21818C27.2827 8.62924 27.5137 8.06377 27.9259 7.64318ZM28.1509 13.7182L22.0759 7.64318C21.6553 7.23092 21.0899 7 20.5009 7C19.912 7 19.3465 7.23092 18.9259 7.64318L12.8509 13.7182H28.1509ZM10.6009 15.9682C9.56917 16.1786 8.64388 16.7441 7.98609 17.5663C7.3283 18.3886 6.97968 19.4154 7.00092 20.4682V42.9682C7.00092 45.4432 9.02592 47.4682 11.5009 47.4682H38.5009C39.6944 47.4682 40.839 46.9941 41.6829 46.1502C42.5268 45.3062 43.0009 44.1617 43.0009 42.9682H34.0009C31.0172 42.9682 28.1557 41.7829 26.046 39.6731C23.9362 37.5633 22.7509 34.7019 22.7509 31.7182C22.7509 28.7345 23.9362 25.873 26.046 23.7632C28.1557 21.6534 31.0172 20.4682 34.0009 20.4682H43.0009C43.0332 19.4463 42.7166 18.4438 42.1032 17.6259C41.4897 16.8079 40.616 16.2233 39.6259 15.9682H10.3759H10.6009Z" fill="white"/>
</svg>
