<svg width="65" height="65" viewBox="0 0 65 65" fill="none" xmlns="http://www.w3.org/2000/svg">
<mask id="mask0_3001_18" style="mask-type:luminance" maskUnits="userSpaceOnUse" x="0" y="0" width="65" height="65">
<path d="M0 0.000335693H64.3548V64.286H0V0.000335693Z" fill="white"/>
</mask>
<g mask="url(#mask0_3001_18)">
<path fill-rule="evenodd" clip-rule="evenodd" d="M63.4018 39.8792C59.1256 57.1044 41.6786 67.6067 24.4332 63.3334C7.18951 59.0617 -3.32404 41.6335 0.953867 24.4084C5.23008 7.18316 22.6753 -3.31909 39.9224 0.952522L40.0088 0.974515C57.2068 5.28673 67.6712 22.6862 63.4018 39.8792Z" fill="#F7931A"/>
</g>
<path fill-rule="evenodd" clip-rule="evenodd" d="M47.3364 28.1829C47.9986 23.9163 44.5945 21.624 39.983 20.1032L41.497 14.3242L37.7678 13.4445L36.2978 19.0729C35.3159 18.8405 34.3313 18.6194 33.3443 18.4097L34.8143 12.7238L31.1274 11.8424L29.6151 17.6197L27.2611 17.1206L22.1669 15.9077L21.188 19.6633C21.188 19.6633 23.9214 20.2639 23.8672 20.3045C24.9121 20.4229 25.6725 21.3077 25.5912 22.3075L23.8672 28.8849C23.9976 28.912 24.1246 28.9526 24.2465 29.0033L23.857 28.9052L21.4522 38.1251C21.2269 38.8018 20.4699 39.1723 19.7603 38.9558C19.7603 39.0065 17.071 38.3265 17.071 38.3265L15.2419 42.3308L20.0432 43.4642L22.6698 44.1139L21.1457 49.9503L24.8342 50.8317L26.3465 45.0545C27.339 45.315 28.3178 45.5552 29.2764 45.7768L27.7861 51.5727L31.4729 52.4439L32.9971 46.6159C39.2988 47.7494 44.017 47.2977 46.012 41.8723C47.6209 37.506 45.929 34.9921 42.6182 33.3511C45.0348 32.8199 46.8215 31.3464 47.3364 28.1829ZM38.933 39.4464C37.7983 43.811 30.0876 41.4494 27.5862 40.8573L29.6151 33.1176C32.1148 33.7182 40.1185 34.8906 38.933 39.4464ZM40.0778 28.1219C39.0278 32.1263 32.6194 30.0742 30.5381 29.5836L32.3773 22.5748C34.4265 23.0569 41.1278 23.9772 40.0457 28.1219H40.0778Z" fill="white"/>
</svg>
