<svg width="32" height="32" viewBox="0 0 32 32" fill="none" xmlns="http://www.w3.org/2000/svg">
<path d="M11.625 2.52591C14.3323 0.96287 17.6677 0.962871 20.375 2.52591L25.4814 5.47409C28.1887 7.03713 29.8564 9.92574 29.8564 13.0518V18.9482C29.8564 22.0743 28.1887 24.9629 25.4814 26.5259L20.375 29.4741C17.6677 31.0371 14.3323 31.0371 11.625 29.4741L6.51859 26.5259C3.81133 24.9629 2.14359 22.0743 2.14359 18.9482V13.0518C2.14359 9.92574 3.81133 7.03713 6.51859 5.47409L11.625 2.52591Z" fill="#D9D9D9"/>
<path d="M11.625 2.52591C14.3323 0.96287 17.6677 0.962871 20.375 2.52591L25.4814 5.47409C28.1887 7.03713 29.8564 9.92574 29.8564 13.0518V18.9482C29.8564 22.0743 28.1887 24.9629 25.4814 26.5259L20.375 29.4741C17.6677 31.0371 14.3323 31.0371 11.625 29.4741L6.51859 26.5259C3.81133 24.9629 2.14359 22.0743 2.14359 18.9482V13.0518C2.14359 9.92574 3.81133 7.03713 6.51859 5.47409L11.625 2.52591Z" fill="url(#paint0_linear_0_611)"/>
<path d="M12.7137 6.94756C14.7441 5.77528 17.2457 5.77528 19.2762 6.94756L22.1947 8.63259C24.2252 9.80487 25.476 11.9713 25.476 14.3159V17.6859C25.476 20.0305 24.2252 22.197 22.1947 23.3692L19.2762 25.0543C17.2457 26.2265 14.7441 26.2265 12.7137 25.0543L9.79512 23.3692C7.76468 22.1969 6.51387 20.0305 6.51387 17.6859V14.3159C6.51387 11.9713 7.76468 9.80487 9.79512 8.63259L12.7137 6.94756Z" stroke="#040A2F" stroke-width="4.375"/>
<path d="M14.3546 13.4379C15.2658 12.5267 16.7432 12.5267 17.6544 13.4379L18.5651 14.3486C19.4763 15.2598 19.4763 16.7372 18.5651 17.6484L17.6544 18.5591C16.7432 19.4703 15.2658 19.4703 14.3546 18.5591L13.4439 17.6484C12.5326 16.7372 12.5326 15.2598 13.4439 14.3486L14.3546 13.4379Z" fill="#040A2F"/>
<defs>
<linearGradient id="paint0_linear_0_611" x1="-7.4" y1="-17.6842" x2="33.9456" y2="-15.1906" gradientUnits="userSpaceOnUse">
<stop offset="0.0189512" stop-color="#0064FB"/>
<stop offset="1" stop-color="#1ECDF8"/>
</linearGradient>
</defs>
</svg>
