<svg width="32" height="32" viewBox="0 0 32 32" fill="none" xmlns="http://www.w3.org/2000/svg">
<path d="M26.8569 3.58621H25.2413V2.63283V1.69531C25.2413 0.781931 24.5911 0 23.6777 0H8.41387C7.50049 0 6.75856 0.781931 6.75856 1.69531V2.63283V3.58621H5.10642C4.39401 3.58621 3.03442 3.96855 3.03442 5.62207V8.33834C3.03442 11.2815 5.06656 13.7634 7.80863 14.4887C8.98298 16.8491 11.0475 18.6439 13.5275 19.3801C13.1221 19.5628 12.8406 19.9651 12.8406 20.4339C12.8406 20.684 12.9234 20.9655 13.0599 21.1034H13.0148C12.3917 21.1034 11.882 21.6552 11.8463 22.2069H10.3364C9.93153 22.2069 9.55098 22.3617 9.26449 22.6497C8.97801 22.9375 8.82146 23.3171 8.82353 23.7218L8.84891 28.6897H8.14932C7.25429 28.6897 6.4827 29.4153 6.4827 30.3103V30.3793C6.4827 31.2743 7.25429 32 8.14932 32H23.8045C24.6995 32 25.3793 31.2743 25.3793 30.3793V30.3103C25.3793 29.4153 24.6997 28.6897 23.8045 28.6897H23.2427L23.2679 23.72C23.27 23.3152 23.1135 22.9375 22.827 22.6495C22.5406 22.3617 22.1599 22.2069 21.7551 22.2069H20.2455C20.2097 21.6552 19.7001 21.1034 19.0769 21.1034H19.0318C19.1684 20.9655 19.2495 20.6841 19.2495 20.4339C19.2495 19.965 18.9664 19.5619 18.561 19.3793C21.041 18.6432 23.0627 16.8488 24.237 14.4883C26.9792 13.763 28.9655 11.2815 28.9655 8.33834V5.7171C28.9655 3.98855 27.6137 3.58621 26.8569 3.58621ZM5.51718 8.93738V6.06897H6.75856V9.96317C6.75856 10.8451 6.85994 11.6994 7.06849 12.5128C6.11498 11.6128 5.51718 10.3429 5.51718 8.93738ZM18.8853 12.4257L16.0459 10.3628L13.2066 12.4257L14.2911 9.09255L11.4518 7.03448H14.9615L16.046 3.69669L17.1304 7.03448H20.6401L17.8008 9.09255L18.8853 12.4257ZM26.4827 8.93738C26.4827 10.343 25.8849 11.6131 24.9311 12.5131C25.1398 11.6996 25.2413 10.8452 25.2413 9.96317V6.06897H26.4827V8.93738Z" fill="url(#paint0_linear_0_615)"/>
<defs>
<linearGradient id="paint0_linear_0_615" x1="4.22513" y1="2.62684e-07" x2="29.4569" y2="0.965135" gradientUnits="userSpaceOnUse">
<stop offset="0.0189512" stop-color="#0064FB"/>
<stop offset="1" stop-color="#1ECDF8"/>
</linearGradient>
</defs>
</svg>
