<svg width="800" height="800" viewBox="0 0 800 800" fill="none" xmlns="http://www.w3.org/2000/svg">
<path d="M412.94 647.99H374.301C347.089 647.99 324.974 670.105 324.974 697.317V750.672C324.974 777.884 347.089 799.999 374.301 799.999H412.94C440.153 799.999 462.267 777.884 462.267 750.672V697.317C462.267 670.024 440.153 647.99 412.94 647.99Z" fill="white"/>
<path d="M140.491 234.96L211.769 243.839C234.377 246.634 255.834 233.645 263.973 212.352C274.249 185.469 288.554 164.259 306.887 148.803C332.867 126.935 365.175 115.918 403.815 115.918C443.852 115.918 475.75 126.441 499.427 147.405C523.104 168.451 534.86 193.608 534.86 223.122C534.86 244.333 528.201 263.734 514.882 281.328C506.25 292.508 479.696 316.021 435.384 351.947C390.99 387.874 361.477 420.264 346.679 449.038C331.552 478.471 326.29 511.108 324.975 543.829C323.825 571.863 346.185 595.211 374.302 595.211H414.585C440.235 595.211 461.446 575.563 463.748 550.077C465.392 531.745 468.434 517.851 473.038 508.397C480.766 492.2 500.743 470.825 532.805 444.19C594.874 392.807 635.322 352.194 654.314 322.269C673.223 292.426 682.759 260.775 682.759 227.315C682.759 166.889 657.027 113.863 605.48 68.3177C554.016 22.7726 484.629 0 397.485 0C314.616 0 247.778 22.4437 196.807 67.4134C153.399 105.724 127.009 151.105 117.72 203.473C114.841 218.765 125.282 233.07 140.491 234.96Z" fill="white"/>
</svg>
