<svg width="29" height="29" viewBox="0 0 29 29" xmlns="http://www.w3.org/2000/svg">
    <g fill="none" fill-rule="evenodd">
        <path d="M29 14.5C29 22.508 22.508 29 14.5 29S0 22.508 0 14.5 6.492 0 14.5 0 29 6.492 29 14.5" fill="#DE2910"/>
        <path d="m8.493 13.903-.114-.435-.413-.15.367-.246.012-.45.34.283.42-.128-.156.42.248.372-.437-.024-.267.358zm2.938 1.23c-.172 0-.355-.012-.55-.04-1.35-.19-1.916-1.095-1.94-1.134a.071.071 0 0 1 .023-.097.067.067 0 0 1 .093.023c.006.01.559.889 1.842 1.07 1.09.153 1.829-.21 2.062-.347-.158.016-.452.08-.759.04-.466-.06-.901-.31-1.093-.547-.706-.872-.323-1.811-1.298-2.527-.787-.58-1.637-.357-1.736-.344-.566.073-.902-.04-1.16-.224-.584-.417-.566-1.117-.61-.991-1.122 3.122 1.053 5.707 3.269 5.959 1.358.154 2.638-.384 3.426-1.226-.228.131-.772.385-1.569.385zM12.313 19.078l-.437-.035-.276.35-.103-.437-.41-.16.374-.235.022-.448.334.29.424-.116-.167.415.24.376zm2.111-2.427a4.19 4.19 0 0 1-.22.518c-.625 1.24-1.646 1.485-1.69 1.494a.068.068 0 0 1-.08-.053.07.07 0 0 1 .05-.083c.012-.003 1.004-.244 1.598-1.422.505-1 .419-1.834.37-2.105-.037.158-.078.463-.216.745-.212.43-.586.768-.868.874-1.036.392-1.771-.29-2.755.413-.795.568-.874 1.462-.896 1.562-.12.57-.338.857-.592 1.045-.578.425-1.215.175-1.114.26 2.494 2.119 5.595.878 6.566-1.177.594-1.26.528-2.673.017-3.713.044.263.096.873-.17 1.642zM18.594 12.445l.374.272.467-.118-.178.4.272.356-.485-.027-.3.338-.12-.415-.457-.148.41-.23.017-.428zm-3.42.713c.156-.098.329-.193.522-.282 1.337-.619 2.413-.237 2.458-.22.039.014.057.053.04.087-.015.034-.059.05-.098.036-.011-.004-1.059-.373-2.33.215-1.078.5-1.519 1.2-1.643 1.44.132-.103.358-.319.66-.462.458-.218 1.006-.272 1.328-.197 1.181.276 1.422 1.222 2.749 1.225 1.073.003 1.7-.653 1.781-.718.465-.379.84-.481 1.187-.485.787-.008 1.208.545 1.17.422-.94-3.059-4.517-3.83-6.673-2.768-1.321.651-2.14 1.795-2.325 2.896.124-.231.456-.737 1.175-1.19zM12.793 9.316l.398-.241.018-.451.363.288.455-.123-.175.42.263.375-.471-.03-.292.355-.117-.437-.442-.156zm-.292 3.256a3.995 3.995 0 0 1-.136-.554c-.241-1.384.483-2.21.515-2.244a.075.075 0 0 1 .103-.007c.031.025.035.07.008.099-.008.009-.71.813-.481 2.13.194 1.116.792 1.735 1.005 1.924-.067-.15-.224-.421-.282-.734-.089-.477.021-.98.197-1.239.646-.953 1.708-.856 2.113-2.027.328-.947-.166-1.717-.21-1.81-.255-.534-.248-.9-.147-1.207.23-.699.936-.889.796-.896-3.48-.174-5.37 2.734-4.915 4.988A4.327 4.327 0 0 0 13.387 14c-.204-.185-.632-.645-.886-1.428zM18.36 18.503l-.168.421.26.376-.462-.027-.284.358-.116-.438-.435-.154.39-.245.015-.453.356.288.444-.126zm-1.743-2.799c.146.106.294.228.443.37 1.029.982.958 2.062.954 2.108a.071.071 0 0 1-.077.065.071.071 0 0 1-.067-.076c.001-.011.068-1.062-.91-1.996-.83-.792-1.678-.952-1.96-.984.144.083.432.213.668.433.358.335.576.804.595 1.114.068 1.139-.828 1.664-.438 2.842.316.952 1.172 1.293 1.263 1.343.525.288.74.587.848.894.242.695-.2 1.25-.085 1.176 2.85-1.84 2.578-5.267.852-6.83-1.057-.958-2.47-1.308-3.651-1.11.273.034.889.162 1.565.651z" fill="#FFF"/>
    </g>
</svg>
