<svg width="20" height="20" viewBox="0 0 20 20" fill="none" xmlns="http://www.w3.org/2000/svg">
<g clip-path="url(#clip0_1627_8676)">
<path d="M18.16 15.5863C17.8575 16.285 17.4995 16.9282 17.0847 17.5196C16.5193 18.3257 16.0564 18.8837 15.6996 19.1936C15.1465 19.7022 14.5539 19.9627 13.9194 19.9775C13.4638 19.9775 12.9145 19.8479 12.275 19.585C11.6334 19.3232 11.0438 19.1936 10.5047 19.1936C9.93926 19.1936 9.33286 19.3232 8.68424 19.585C8.03463 19.8479 7.51131 19.9849 7.1112 19.9985C6.5027 20.0244 5.89618 19.7566 5.29077 19.1936C4.90436 18.8566 4.42104 18.2788 3.84205 17.4603C3.22083 16.5863 2.71011 15.5727 2.31 14.4172C1.88149 13.1691 1.66669 11.9605 1.66669 10.7904C1.66669 9.45007 1.95631 8.29406 2.53641 7.32532C2.99232 6.5472 3.59885 5.93339 4.35796 5.48278C5.11707 5.03218 5.93729 4.80256 6.8206 4.78786C7.30391 4.78786 7.93772 4.93737 8.72535 5.23119C9.51076 5.52599 10.0151 5.67549 10.2362 5.67549C10.4015 5.67549 10.9617 5.50068 11.9114 5.15217C12.8095 4.82897 13.5675 4.69515 14.1885 4.74787C15.8712 4.88366 17.1353 5.54698 17.976 6.742C16.4712 7.65383 15.7267 8.93095 15.7415 10.5693C15.7551 11.8454 16.2181 12.9074 17.1279 13.7506C17.5403 14.1419 18.0007 14.4444 18.5131 14.6592C18.402 14.9814 18.2847 15.29 18.16 15.5863V15.5863ZM14.3009 0.400343C14.3009 1.40057 13.9354 2.33448 13.2071 3.1989C12.3281 4.22652 11.2649 4.82033 10.112 4.72663C10.0973 4.60664 10.0888 4.48034 10.0888 4.34763C10.0888 3.38741 10.5068 2.35979 11.2491 1.51957C11.6197 1.09415 12.091 0.740419 12.6626 0.458242C13.233 0.180275 13.7725 0.0265531 14.2799 0.000228882C14.2947 0.133944 14.3009 0.267667 14.3009 0.40033V0.400343Z" fill="white"/>
</g>
<defs>
<clipPath id="clip0_1627_8676">
<rect width="20" height="20" fill="white"/>
</clipPath>
</defs>
</svg>
