<svg width="20" height="20" viewBox="0 0 20 20" fill="none" xmlns="http://www.w3.org/2000/svg">
<g clip-path="url(#clip0_1627_8675)">
<path fill-rule="evenodd" clip-rule="evenodd" d="M10.0002 0.416664C7.62627 0.417896 5.33013 1.25871 3.52241 2.78877C1.71469 4.31882 0.513273 6.43834 0.132974 8.76833C-0.247325 11.0983 0.218293 13.4868 1.44658 15.5068C2.67487 17.5268 4.58572 19.0465 6.83746 19.7941C7.33423 19.8863 7.52135 19.5785 7.52135 19.3167C7.52135 19.0549 7.51141 18.2958 7.5081 17.466C4.72618 18.067 4.13834 16.2921 4.13834 16.2921C3.68462 15.1395 3.02888 14.8366 3.02888 14.8366C2.12145 14.2208 3.09678 14.2323 3.09678 14.2323C4.10192 14.3031 4.63015 15.2581 4.63015 15.2581C5.52103 16.7778 6.96993 16.3382 7.53956 16.0813C7.62898 15.4375 7.88896 14.9996 8.17543 14.751C5.95321 14.5007 3.61839 13.6478 3.61839 9.83785C3.60461 8.84976 3.97337 7.89421 4.64836 7.1689C4.5457 6.91863 4.20292 5.90769 4.74606 4.53452C4.74606 4.53452 5.58561 4.26779 7.49652 5.5537C9.13558 5.10802 10.8649 5.10802 12.504 5.5537C14.4132 4.26779 15.2511 4.53452 15.2511 4.53452C15.7959 5.9044 15.4531 6.91534 15.3505 7.1689C16.0276 7.89432 16.3971 8.85154 16.3821 9.84114C16.3821 13.6593 14.0423 14.5007 11.8168 14.746C12.1744 15.0556 12.494 15.6598 12.494 16.5884C12.494 17.9188 12.4824 18.989 12.4824 19.3167C12.4824 19.5817 12.6629 19.8913 13.1696 19.7941C15.4216 19.0464 17.3327 17.5264 18.561 15.5061C19.7892 13.4858 20.2546 11.0969 19.8739 8.76671C19.4931 6.4365 18.2911 4.31696 16.4828 2.78717C14.6745 1.25738 12.3778 0.417115 10.0035 0.416664H10.0002Z" fill="white"/>
<path d="M3.78705 14.6933C3.76552 14.7427 3.68604 14.7576 3.62146 14.723C3.55688 14.6884 3.50886 14.6242 3.53205 14.5731C3.55523 14.5221 3.63306 14.5089 3.69764 14.5435C3.76222 14.5781 3.81189 14.6439 3.78705 14.6933Z" fill="white"/>
<path d="M4.19273 15.1428C4.15844 15.16 4.11921 15.1648 4.08175 15.1564C4.04429 15.148 4.01094 15.1269 3.9874 15.0967C3.92282 15.0276 3.90957 14.9321 3.95924 14.8893C4.00892 14.8465 4.09835 14.8662 4.16293 14.9354C4.22751 15.0045 4.24241 15.1 4.19273 15.1428Z" fill="white"/>
<path d="M4.58685 15.7142C4.52558 15.757 4.42125 15.7142 4.3633 15.6285C4.34727 15.6132 4.33453 15.5948 4.32582 15.5744C4.31711 15.554 4.31262 15.5321 4.31262 15.51C4.31262 15.4879 4.31711 15.466 4.32582 15.4456C4.33453 15.4252 4.34727 15.4068 4.3633 15.3914C4.42457 15.3503 4.52889 15.3914 4.58685 15.4754C4.64481 15.5594 4.64646 15.6713 4.58685 15.7142V15.7142Z" fill="white"/>
<path d="M5.12168 16.2674C5.06704 16.3283 4.95609 16.3118 4.86502 16.2295C4.77394 16.1472 4.75241 16.0352 4.80706 15.9759C4.8617 15.9167 4.97265 15.9331 5.06703 16.0138C5.16142 16.0945 5.17964 16.2081 5.12168 16.2674V16.2674Z" fill="white"/>
<path d="M5.87179 16.5901C5.84695 16.6675 5.73435 16.702 5.62175 16.6691C5.50915 16.6362 5.43463 16.544 5.45616 16.4649C5.47769 16.3859 5.59194 16.3497 5.7062 16.3859C5.82046 16.4221 5.89332 16.5094 5.87179 16.5901Z" fill="white"/>
<path d="M6.68986 16.6461C6.68986 16.7267 6.59713 16.7959 6.47791 16.7975C6.35868 16.7992 6.26099 16.7333 6.26099 16.6526C6.26099 16.572 6.35371 16.5028 6.47294 16.5012C6.59216 16.4995 6.68986 16.5637 6.68986 16.6461Z" fill="white"/>
<path d="M7.4516 16.5193C7.4665 16.6 7.38371 16.6839 7.26448 16.7037C7.14526 16.7234 7.04094 16.6757 7.02603 16.5967C7.01113 16.5176 7.09724 16.432 7.21315 16.4106C7.32906 16.3892 7.4367 16.4386 7.4516 16.5193Z" fill="white"/>
</g>
<defs>
<clipPath id="clip0_1627_8675">
<rect width="20" height="20" fill="white"/>
</clipPath>
</defs>
</svg>
