<svg width="15" height="13" viewBox="0 0 15 13" xmlns="http://www.w3.org/2000/svg">
    <path d="M4.717 13c5.661 0 8.757-5.001 8.757-9.338 0-.142-.003-.283-.01-.424A6.505 6.505 0 0 0 15 1.538a5.84 5.84 0 0 1-1.767.517A3.265 3.265 0 0 0 14.586.24a5.945 5.945 0 0 1-1.954.797A2.988 2.988 0 0 0 10.385 0c-1.7 0-3.077 1.47-3.077 3.281 0 .258.027.508.08.749C4.83 3.892 2.562 2.587 1.044.6.77 1.103.627 1.67.627 2.25c0 1.139.543 2.144 1.37 2.732a2.911 2.911 0 0 1-1.394-.41v.042c0 1.589 1.06 2.916 2.468 3.217a2.902 2.902 0 0 1-1.39.056c.392 1.304 1.528 2.253 2.875 2.28A5.935 5.935 0 0 1 0 11.525 8.323 8.323 0 0 0 4.717 13" fill="#1DA1F2" fill-rule="nonzero"/>
</svg>
