<svg width="337" height="86" viewBox="0 0 337 86" fill="none" xmlns="http://www.w3.org/2000/svg">
<g clip-path="url(#clip0_2016_131)">
<path fill-rule="evenodd" clip-rule="evenodd" d="M41.0103 0V85.6983C18.8244 85.6983 0 66.1294 0 42.8492C0 19.5689 18.8244 0 41.0103 0Z" fill="#5F70DB"/>
<path d="M194.631 47.2353L185.555 22.6055H168.747L186.563 64.1051L179.168 84.3488H193.959L218.161 22.6055H203.371L194.631 47.2353Z" fill="white"/>
<path d="M335.478 36.1012C334.469 24.9672 326.738 21.2559 315.645 21.2559C305.224 21.2559 296.148 26.3168 296.148 36.4386C296.148 46.2231 301.19 49.597 313.292 51.284C319.679 52.2962 321.696 53.3084 321.696 55.3328C321.696 57.6945 320.015 59.0441 316.317 59.0441C311.947 59.0441 310.266 57.0197 309.93 53.9832H295.812C295.812 64.4424 303.543 69.8407 316.317 69.8407C328.755 69.8407 336.822 64.7798 336.822 53.9832C336.822 44.1987 330.772 40.8248 318.334 39.1378C312.956 38.463 310.603 37.4508 310.603 35.4264C310.603 33.4021 312.283 31.7151 315.645 31.7151C319.343 31.7151 320.687 33.0647 321.359 36.4386H335.478V36.1012Z" fill="white"/>
<path d="M291.106 68.8286V22.6055H275.643V68.8286H291.106Z" fill="white"/>
<path d="M291.778 9.78443C291.778 5.0609 288.081 1.68695 283.374 1.68695C278.668 1.68695 274.971 5.39829 274.971 9.78443C274.971 14.508 278.668 17.8819 283.374 17.8819C288.081 18.2193 291.778 14.508 291.778 9.78443Z" fill="white"/>
<path fill-rule="evenodd" clip-rule="evenodd" d="M100.845 21.2559C111.266 21.2559 120.006 29.3533 120.006 45.2109V45.8857C120.006 61.7433 111.602 69.8407 100.845 69.8407C94.1221 69.8407 89.0799 66.4668 86.7268 62.0807V84.3487H71.2639V22.6054H86.7268V29.3533C89.416 24.9672 94.1221 21.2559 100.845 21.2559ZM86.3907 45.2109C86.3907 37.4508 89.7522 33.4021 95.4667 33.4021C100.845 33.4021 104.543 37.4508 104.543 45.5483V46.2231C104.543 53.9832 101.517 58.0319 95.4667 58.0319C89.7522 58.0319 86.3907 53.9832 86.3907 46.2231V45.2109Z" fill="white"/>
<path fill-rule="evenodd" clip-rule="evenodd" d="M146.897 21.2559C159.335 21.2559 167.403 26.3168 167.403 38.8004V68.8286H152.276V63.4302C150.259 66.8042 146.225 69.8407 138.83 69.8407C130.762 69.8407 123.367 65.792 123.367 56.0075C123.367 45.2109 132.443 40.8248 147.57 40.8248H151.94V39.8126C151.94 35.4265 150.931 32.3899 145.889 32.3899C141.519 32.3899 140.174 35.0891 139.838 37.7882H125.384C126.056 26.6542 134.796 21.2559 146.897 21.2559ZM147.906 49.9344H151.94V52.6336C151.94 56.6823 148.578 59.0441 144.208 59.0441C140.511 59.0441 138.83 57.3571 138.83 54.658C138.83 50.9466 141.855 49.9344 147.906 49.9344Z" fill="white"/>
<path fill-rule="evenodd" clip-rule="evenodd" d="M237.658 2.02435V29.3533C240.347 24.9672 245.053 21.2559 251.776 21.2559C262.197 21.2559 270.937 29.3533 270.937 45.2109V45.8857C270.937 61.7433 262.533 69.8408 251.776 69.8408C245.053 69.8408 240.011 66.4668 237.658 61.7433V68.8286H222.195V2.02435H237.658ZM237.322 45.2109C237.322 37.4508 240.683 33.4021 246.398 33.4021C251.776 33.4021 255.474 37.4508 255.474 45.5483V46.2231C255.474 53.9832 252.449 58.0319 246.398 58.0319C240.683 58.0319 237.322 53.9832 237.322 46.2231V45.2109Z" fill="white"/>
</g>
<defs>
<clipPath id="clip0_2016_131">
<rect width="336.822" height="85.6983" fill="white"/>
</clipPath>
</defs>
</svg>
